<?xml version="1.0" encoding="UTF-8" standalone="no"?>
<!-- Created with Inkscape (http://www.inkscape.org/) -->

<svg
   xmlns:dc="http://purl.org/dc/elements/1.1/"
   xmlns:cc="http://creativecommons.org/ns#"
   xmlns:rdf="http://www.w3.org/1999/02/22-rdf-syntax-ns#"
   xmlns:svg="http://www.w3.org/2000/svg"
   xmlns="http://www.w3.org/2000/svg"
   xmlns:sodipodi="http://sodipodi.sourceforge.net/DTD/sodipodi-0.dtd"
   xmlns:inkscape="http://www.inkscape.org/namespaces/inkscape"
   width="625"
   height="625.00006"
   id="svg4163"
   version="1.1"
   inkscape:version="0.91 r"
   viewBox="0 0 625 625.00007"
   sodipodi:docname="fondo-login-grafico.svg">
  <defs
     id="defs4165" />
  <sodipodi:namedview
     id="base"
     pagecolor="#ffffff"
     bordercolor="#ffffff"
     borderopacity="0.0"
     inkscape:pageopacity="0.0"
     inkscape:pageshadow="0"
     inkscape:zoom="0.35"
     inkscape:cx="585.17643"
     inkscape:cy="447.85717"
     inkscape:document-units="px"
     inkscape:current-layer="layer1"
     showgrid="false"
     fit-margin-top="0"
     fit-margin-left="0"
     fit-margin-right="0"
     fit-margin-bottom="0"
     inkscape:window-width="1366"
     inkscape:window-height="716"
     inkscape:window-x="0"
     inkscape:window-y="0"
     inkscape:window-maximized="1" />
  <metadata
     id="metadata4168">
    <rdf:RDF>
      <cc:Work
         rdf:about="">
        <dc:format>image/svg+xml</dc:format>
        <dc:type
           rdf:resource="http://purl.org/dc/dcmitype/StillImage" />
        <dc:title></dc:title>
      </cc:Work>
    </rdf:RDF>
  </metadata>
  <g
     inkscape:label="Layer 1"
     inkscape:groupmode="layer"
     id="layer1"
     transform="translate(793.74786,-355.21931)">
    <g
       id="g4815"
       transform="translate(-428.16958,374.49943)">
      <rect
         y="-19.280096"
         x="-365.57828"
         height="625"
         width="625"
         id="rect4798"
         style="opacity:0.56000001;fill:#61c3bc;fill-opacity:1;stroke:none;stroke-width:0.2;stroke-miterlimit:4;stroke-dasharray:none;stroke-opacity:0.67391304" />
      <path
         inkscape:connector-curvature="0"
         id="path4813"
         d="m -359.02831,603.04744 c -0.43037,-3.40299 -1.87891,-5.61483 -4.58118,-6.9953 -2.49681,-1.27545 -1.65003,-1.38365 0.94825,-0.12113 2.35994,1.14669 4.46184,5.18609 4.18513,8.04294 -0.16496,1.70299 -0.23438,1.58647 -0.5522,-0.92651 z m 18.95172,-2.14105 c -1.22738,-13.74677 -6.0782,-27.80926 -11.86691,-34.40196 -2.63152,-2.99704 -8.30377,-6.36795 -10.74929,-6.38811 -0.63481,-0.005 -1.54374,-0.271 -2.01984,-0.59058 -1.2956,-0.86965 2.56608,-0.0517 6.18704,1.31053 7.05842,2.65537 13.01488,12.07134 16.6173,26.26858 1.55578,6.13135 2.77801,14.57364 2.47873,17.12119 -0.10957,0.93266 -0.40073,-0.5612 -0.64703,-3.31965 z m 15.47225,-16.99386 0,-21.71938 -1.54665,-3.37898 c -4.58583,-10.01862 -20.96337,-20.16566 -35.00748,-21.6896 -4.24095,-0.46018 -4.29089,-0.48278 -1.23418,-0.5582 3.79178,-0.0935 9.49468,1.43776 16.04324,4.30783 9.99843,4.38206 17.39095,10.66313 20.52776,17.44142 l 1.79441,3.87753 0.17878,19.87267 c 0.0983,10.92999 -0.0315,20.7037 -0.28855,21.71939 -0.26261,1.03773 -0.46733,-7.66776 -0.46733,-19.87268 z m 18.20839,21.31773 c -0.0557,-1.29206 3.5365,-11.11116 5.36429,-14.66305 2.20788,-4.29062 7.8027,-10.494 12.98986,-14.40299 2.10887,-1.58918 8.5088,-5.60899 14.22207,-8.9329 14.67587,-8.53824 17.52605,-10.87111 24.46322,-20.02315 8.18452,-10.79765 12.07323,-13.88848 18.44602,-14.66133 4.54907,-0.55168 7.03534,1.73912 7.82676,7.21146 0.39147,2.70687 0.086,2.21378 -0.78739,-1.27091 -0.3353,-1.33778 -1.32314,-3.16303 -2.19521,-4.0561 -1.44107,-1.47577 -1.8653,-1.5942 -4.65498,-1.29947 -5.9646,0.63018 -10.27832,3.84774 -16.57932,12.36637 -8.18556,11.06646 -10.57364,13.11043 -25.4266,21.7628 -21.09368,12.28783 -26.3061,17.64359 -31.41078,32.27462 -1.22547,3.51241 -2.24154,6.07503 -2.25794,5.69465 z m 17.86023,0.0532 c 0,-1.20573 4.82755,-7.38423 8.63625,-11.05306 3.87059,-3.72847 11.40784,-8.72784 13.0893,-8.68204 0.271,0.008 -1.06545,0.87641 -2.96987,1.93121 -7.41447,4.10647 -13.4399,9.67556 -16.77692,15.50619 -1.41002,2.4637 -1.97876,3.12412 -1.97876,2.2977 z m 21.92971,0.0574 c 0,-0.53403 5.47068,-3.12466 8.61694,-4.08054 3.99247,-1.21294 10.4769,-1.2198 14.50651,-0.0154 3.32017,0.99234 8.33579,3.68444 7.82982,4.20256 -0.16535,0.1693 -1.11849,-0.28849 -2.11809,-1.01734 -6.29954,-4.59317 -19.10994,-4.59098 -26.39646,0.006 -1.93465,1.22015 -2.43872,1.40742 -2.43872,0.90613 z m 45.90202,-0.82293 c -0.66563,-2.14749 -5.82177,-9.75728 -8.55561,-12.62695 -3.5694,-3.74678 -8.96411,-7.24189 -12.67614,-8.21255 -4.4623,-1.16678 -14.22977,-0.89247 -19.47639,0.54697 -4.9362,1.35435 -6.268,1.26642 -1.72815,-0.11411 8.58551,-2.61071 18.58742,-2.50795 24.68435,0.25369 3.95474,1.79128 8.40036,5.45231 11.90735,9.80592 3.10777,3.85799 7.05693,10.68327 6.50716,11.24619 -0.16027,0.16409 -0.45841,-0.24051 -0.66257,-0.89916 z m 5.01953,-12.66826 c -8.54101,-21.98514 -9.97579,-27.2798 -9.9296,-36.64265 0.0162,-3.29955 2.14197,-14.72959 2.21748,-11.92354 0.0175,0.65002 -0.34444,2.77736 -0.80428,4.72742 -1.47708,6.26389 -0.8564,15.75573 1.52632,23.34166 0.66356,2.11257 3.79716,10.57756 6.96356,18.81102 3.16639,8.23352 5.66536,15.06394 5.55324,15.17875 -0.11211,0.11482 -2.59914,-5.95691 -5.52672,-13.49266 z m 13.71341,13.66882 c 0,-0.16771 -1.07787,-4.53319 -2.39526,-9.70109 -2.24947,-8.82421 -2.39875,-9.91766 -2.45267,-17.96457 -0.0508,-7.58275 0.10455,-9.07489 1.35049,-12.97071 1.8946,-5.92406 5.50416,-11.22045 14.00563,-20.55076 9.18701,-10.0827 10.93223,-12.97876 11.29333,-18.74045 0.23328,-3.72201 0.0696,-4.78749 -1.15687,-7.53063 -2.87491,-6.43013 -7.51118,-10.27399 -20.48834,-16.98655 -9.99589,-5.17048 -14.21976,-8.33927 -18.02011,-13.51883 -4.40258,-6.00036 -6.77184,-11.42761 -8.59588,-19.69049 -2.04906,-9.28218 -6.12824,-18.75031 -12.69694,-29.47062 -3.79743,-6.1975 -7.77724,-10.97468 -16.24577,-19.50062 -9.19124,-9.25357 -11.42499,-12.49855 -13.03595,-18.93742 -1.17609,-4.70075 -0.81043,-8.38288 1.54931,-15.60117 5.30765,-16.23577 14.70277,-29.08224 25.04943,-34.25152 4.01725,-2.00704 7.9814,-3.04467 22.71712,-5.94627 10.80063,-2.12673 15.51234,-4.36784 25.42112,-12.09152 11.49588,-8.96079 18.88308,-9.77374 30.92416,-3.40315 6.53543,3.45768 14.41149,11.43041 17.22008,17.43139 2.07996,4.44418 2.5815,6.85408 4.10446,19.72207 1.76628,14.92391 6.33827,25.08042 15.1583,33.67355 6.23605,6.07564 14.21709,10.67799 24.46135,14.10589 23.079574,7.72279 46.665386,4.6339 62.332175,-8.1633 5.177564,-4.22922 19.981883,-19.75926 23.820765,-24.98849 7.611366,-10.36803 9.321194,-19.22554 7.613494,-39.44046 -1.746349,-20.67231 -0.927326,-26.63194 4.377009,-31.84937 5.185424,-5.10045 14.526541,-5.03399 25.137477,0.17889 7.089737,3.483 12.459016,8.88588 15.739611,15.83813 4.291559,9.09468 4.296023,16.04332 0.02029,31.52054 -4.000371,14.48037 -8.91429,25.10201 -15.502053,33.50832 -5.019402,6.405 -18.162891,19.96467 -25.437662,26.24313 -10.068434,8.68952 -13.635625,13.63431 -21.590832,29.92892 -4.556085,9.33221 -7.834017,17.33557 -10.207308,24.92206 -2.624169,8.38842 -4.463301,11.83352 -8.653526,16.20994 -6.498661,6.78742 -14.464902,9.97259 -27.90629,11.15781 -14.496918,1.27832 -42.2081,-2.44483 -50.59777,-6.79809 -4.11601,-2.13571 -8.89119,-6.87391 -10.64475,-10.56227 -0.78951,-1.66063 -1.98059,-5.27964 -2.64683,-8.04222 -2.44848,-10.15261 -5.98567,-14.72521 -19.58058,-25.3122 -15.11423,-11.77017 -15.64553,-14.75104 -5.54698,-31.12144 5.75611,-9.33103 6.08065,-12.89478 2.31851,-25.45963 -1.15957,-3.87277 -2.84636,-10.79488 -3.74841,-15.38243 -2.85602,-14.52486 -5.21049,-19.94611 -10.22031,-23.53252 -3.89199,-2.7862 -8.35301,-2.80681 -17.92501,-0.0828 -4.15117,1.18133 -10.34809,2.54435 -13.77093,3.02891 -21.49008,3.04232 -25.95387,4.2736 -32.76986,9.03915 -11.97762,8.37441 -17.97269,25.4439 -12.76456,36.34402 2.23472,4.67706 6.73132,9.45656 16.22715,17.24803 9.61601,7.8901 14.5646,13.03598 16.7608,17.42901 1.47141,2.94321 1.65507,4.02619 2.05156,12.09654 0.61489,12.5163 2.59936,19.01725 8.30395,27.20309 5.02444,7.20988 10.33826,10.91724 24.50431,17.09625 4.90346,2.13882 10.09734,4.66608 11.54195,5.61614 2.39512,1.57515 11.16957,10.49749 20.84639,21.19772 5.76259,6.37204 10.39482,7.91869 16.54414,5.52391 1.51107,-0.58848 5.86373,-3.20835 9.67258,-5.82195 3.80884,-2.61359 7.96394,-5.29316 9.23356,-5.95461 6.1561,-3.2072 15.17013,-4.85177 33.183123,-6.0541 23.711829,-1.58271 33.680562,-4.11421 42.991117,-10.9173 4.661468,-3.40608 7.226127,-7.03038 10.677464,-15.08909 2.473122,-5.77465 3.368272,-7.14842 8.170366,-12.53905 2.966119,-3.32964 9.193118,-9.91528 13.837751,-14.63477 4.644644,-4.71948 9.447292,-10.04343 10.672546,-11.83099 1.225243,-1.78755 4.440102,-5.66521 7.14412,-8.617 6.79365,-7.41619 8.923268,-10.81702 11.543547,-18.43419 1.323372,-3.84705 3.510788,-8.6146 5.267439,-11.4806 4.824461,-7.87121 9.268869,-17.97324 15.464277,-35.14996 11.23702,-31.15454 11.88631,-38.1363 4.868008,-52.34549 -5.12035,-10.36661 -14.9924,-20.70155 -24.127324,-25.25862 -5.921271,-2.95388 -10.069216,-3.76591 -19.078993,-3.73504 -13.921846,0.0477 -24.193336,3.14807 -29.016036,8.75825 -4.454077,5.18136 -5.440844,12.48613 -3.936357,29.13971 1.142891,12.651 1.1651,22.78702 0.06156,28.12045 -1.386673,6.7021 -9.085201,22.0283 -17.171413,34.18483 -4.557669,6.85183 -11.692269,13.72707 -17.216544,16.59069 -5.695077,2.95216 -9.422619,3.92058 -16.688987,4.3358 -19.490063,1.11374 -39.809594,-9.36722 -46.897834,-24.19022 -0.82272,-1.72048 -1.65477,-3.915 -1.849,-4.8767 -0.19422,-0.96169 0.16841,-0.41894 0.80585,1.20611 2.6149,6.66624 6.26861,11.58889 11.78437,15.87711 15.71649,12.21875 38.913422,15.14458 53.392259,6.73439 7.910136,-4.59469 13.682716,-11.20986 21.588694,-24.73983 6.397128,-10.94779 10.626663,-20.05359 11.68063,-25.14727 1.098642,-5.30955 1.074523,-15.46249 -0.06671,-28.09536 -1.038547,-11.49604 -0.825555,-18.76977 0.686008,-23.42629 1.274164,-3.9252 5.199378,-8.51586 8.941874,-10.45777 8.429429,-4.37388 24.457516,-6.04651 35.443567,-3.69873 13.003546,2.77891 28.464795,17.84574 34.554675,33.67316 4.241773,11.02425 3.017793,19.05343 -7.235186,47.46203 -6.942104,19.23493 -9.45034,25.02702 -14.800518,34.17764 -2.329358,3.98399 -4.758309,9.07124 -5.64288,11.81856 -2.701929,8.39174 -4.372249,11.10455 -11.52021,18.71042 -2.290819,2.43758 -5.642415,6.50419 -7.447997,9.0369 -2.952669,4.14176 -11.810408,13.56944 -13.843996,14.73476 -0.441177,0.25281 -2.958993,3.05163 -5.595137,6.21958 -2.636145,3.16795 -6.115065,7.0895 -7.730932,8.71456 -2.183784,2.19619 -3.428207,4.16816 -4.847827,7.68207 -3.277062,8.11155 -4.702294,10.52209 -8.44474,14.28297 -2.630097,2.64303 -5.108672,4.38753 -9.0085,6.34046 -8.75779,4.38566 -17.485474,6.1249 -37.409024,7.45475 -24.74072,1.6514 -29.73063,3.08901 -42.63449,12.28319 -12.78416,9.1089 -18.6012,8.83806 -27.3551,-1.27366 -7.4288,-8.58107 -17.95039,-19.04073 -20.72118,-20.5992 -1.48684,-0.8363 -6.40715,-3.15085 -10.93401,-5.14347 -11.8571,-5.21918 -15.14728,-7.26092 -20.46917,-12.70215 -3.83305,-3.91901 -5.15702,-5.78999 -7.3546,-10.39322 -3.60671,-7.55486 -4.42582,-11.13231 -4.93856,-21.56887 -0.38811,-7.90004 -0.59975,-9.19231 -1.94629,-11.88386 -2.22581,-4.44908 -6.55031,-8.97056 -15.902,-16.62631 -10.5307,-8.62094 -14.63745,-12.92337 -16.9735,-17.78228 -5.52455,-11.49091 0.6711,-29.12964 13.23016,-37.66566 6.49586,-4.41504 11.7072,-5.81574 32.78836,-8.81283 3.49144,-0.49638 9.57753,-1.83066 13.52463,-2.96509 11.43957,-3.28779 16.33827,-2.67107 21.02061,2.64633 3.66393,4.16086 5.9238,10.63269 8.15706,23.36018 0.51325,2.9251 1.69142,7.71162 2.61812,10.63671 2.13649,6.74368 3.4249,12.4095 3.43582,15.10914 0.014,3.4713 -1.52362,7.70707 -4.7158,12.99053 -5.44772,9.01668 -6.81763,12.17732 -6.81763,15.7295 0,1.76457 0.36872,3.92637 0.81935,4.80401 1.19637,2.32991 4.9193,5.76663 12.74245,11.76281 11.89145,9.11441 15.51736,14.08832 18.41967,25.26756 3.75355,14.45807 10.48446,18.92241 33.80768,22.4233 27.849977,4.18038 46.303928,1.21527 56.459021,-9.07161 4.06578,-4.11853 5.767206,-7.32508 9.00171,-16.96482 3.451476,-10.2864 6.103891,-16.65275 11.165147,-26.79864 7.584496,-15.20403 10.110041,-18.42512 24.324699,-31.02372 7.312962,-6.48156 20.286739,-20.58895 24.253272,-26.37245 3.670129,-5.35132 8.046654,-14.51312 10.408049,-21.7882 7.059462,-21.74904 7.215765,-31.98904 0.646628,-42.3639 -6.239796,-9.8547 -18.506504,-16.60311 -29.159483,-16.04178 -4.999043,0.2634 -7.997753,1.7239 -10.556335,5.14139 -3.68059,4.91614 -4.203734,10.51009 -2.760321,29.51606 1.942911,25.58282 0.05127,31.71198 -15.008542,48.63073 -12.449178,13.98582 -20.763149,20.72104 -30.170209,24.44111 -18.314196,7.24246 -40.185617,5.72988 -59.857046,-4.13959 -11.45561,-5.74746 -19.4018,-13.66931 -24.31603,-24.24156 -2.98735,-6.42685 -4.45679,-12.54177 -5.67159,-23.60164 -0.49976,-4.55014 -1.28952,-9.60258 -1.75499,-11.22763 -3.84814,-13.43429 -21.75588,-26.83418 -34.1158,-25.52796 -4.37092,0.46193 -8.6926,2.66704 -15.75511,8.03894 -10.54433,8.02024 -14.1305,9.60592 -27.45796,12.14096 -16.51507,3.14136 -20.36221,4.55654 -26.73043,9.83278 -6.85075,5.67605 -14.10924,17.52434 -17.9763,29.34339 -2.32182,7.09624 -2.68505,10.80345 -1.51623,15.47511 1.55424,6.21218 4.34335,10.1408 14.5016,20.4263 10.84082,10.97663 15.05627,16.96507 21.60451,30.6913 3.27038,6.85526 4.3729,9.90327 5.51097,15.2355 0.78249,3.6662 1.85144,7.86243 2.37546,9.32498 1.56709,4.37375 5.23444,10.38129 8.62977,14.13654 3.78875,4.19038 7.49505,6.66421 18.68202,12.46956 7.27696,3.7763 8.91059,4.90386 12.75854,8.80619 5.33898,5.41443 6.61696,8.47893 6.17481,14.80675 -0.3856,5.51843 -2.19758,8.61524 -10.1196,17.29525 -10.0504,11.01206 -12.95121,15.15412 -15.20825,21.71585 -1.15771,3.36569 -1.31802,4.93797 -1.29539,12.70496 0.0247,8.45648 0.13626,9.29612 2.42819,18.26759 1.3213,5.17204 2.27166,9.53753 2.11193,9.70109 -0.15974,0.16357 -0.29043,0.16014 -0.29043,-0.008 z m 8.3496,-6.5021 c -3.04317,-12.88188 -2.47445,-22.4025 1.86932,-31.29325 2.67128,-5.46752 6.81877,-9.66761 15.1796,-15.37209 22.78403,-15.54522 32.71754,-15.02339 41.1201,2.16012 2.67297,5.46633 3.94704,9.84712 6.78579,23.3325 2.6522,12.59918 4.11859,17.44976 6.96995,23.05536 2.36477,4.649 2.59734,5.2228 1.79642,4.43196 -1.03868,-1.02561 -4.16606,-7.78098 -5.59823,-12.0927 -0.75771,-2.2811 -2.45199,-9.26876 -3.76507,-15.52805 -1.31308,-6.25927 -3.03729,-13.37489 -3.83158,-15.81247 -2.95998,-9.08383 -7.85414,-16.57662 -12.36762,-18.9344 -7.16159,-3.74114 -19.6298,1.10998 -37.05502,14.41734 -4.8747,3.72272 -9.05935,9.81997 -10.93754,15.93651 -1.95284,6.35969 -1.82459,16.70838 0.31543,25.45435 0.86681,3.54261 1.46844,6.5512 1.33696,6.68588 -0.13149,0.13461 -0.94982,-2.76383 -1.81851,-6.44106 z m 13.53884,2.36442 c -1.10289,-6.48325 -0.8615,-13.62461 0.624,-18.46012 1.04203,-3.39199 1.81502,-4.65881 4.52107,-7.40971 3.57476,-3.63396 6.14553,-4.7579 10.83335,-4.73631 8.32294,0.0383 13.88684,7.38721 19.60821,25.89887 1.4414,4.66372 2.52193,8.58062 2.40118,8.70425 -0.12075,0.12368 -1.48615,-3.81089 -3.03422,-8.74343 -5.95593,-18.97719 -10.80564,-25.3042 -19.36861,-25.26876 -9.59226,0.0397 -15.74771,8.37111 -15.70775,21.26043 0.009,2.7626 0.325,6.71247 0.70317,8.77754 0.37817,2.06505 0.56775,3.87737 0.42128,4.02734 -0.14647,0.14998 -0.59723,-1.67255 -1.00168,-4.0501 z m 77.61378,-0.10042 c -7.27886,-7.72396 -10.32067,-14.50416 -12.10104,-26.9731 -0.74012,-5.18346 -0.90365,-9.31912 -0.68933,-17.43238 0.2464,-9.32761 0.47199,-11.28929 1.83297,-15.93917 2.15891,-7.37599 4.57865,-11.77882 8.97869,-16.33716 4.37359,-4.53093 9.643164,-7.51807 16.534685,-9.37296 2.494469,-0.67139 11.806835,-2.28844 20.694137,-3.59344 8.887302,-1.305 17.846753,-2.76739 19.909873,-3.24979 9.495856,-2.22026 16.991526,-5.71307 21.24522,-9.89981 2.791804,-2.74785 5.662506,-9.24674 7.346394,-16.63128 0.812185,-3.56178 2.153886,-7.74999 2.981549,-9.30713 1.98339,-3.73147 6.655052,-8.60205 17.191603,-17.92361 15.975742,-14.13355 17.765875,-16.16072 29.855071,-33.80827 3.323814,-4.85203 5.301573,-9.58552 11.738418,-28.09418 6.964612,-20.02625 9.521858,-26.51955 14.70938,-37.34968 7.51291,-15.68493 10.39311,-18.43185 26.79922,-25.55909 15.15939,-6.58564 17.5234,-7.32059 24.68465,-7.67426 7.79227,-0.38483 12.28582,0.6213 20.45525,4.58008 14.64319,7.09586 27.50355,19.36667 36.89122,35.20001 1.51898,2.5619 4.85911,9.44966 7.42252,15.30615 8.03079,18.34748 12.15604,22.76218 21.26985,22.76218 5.16998,0 9.90052,-1.6324 22.29756,-7.69445 13.69719,-6.69779 15.88343,-7.36606 23.94955,-7.32045 6.12849,0.0347 14.53012,1.6505 17.01475,3.27233 1.02088,0.66637 0.87816,0.63439 -6.04991,-1.35662 -3.57141,-1.02637 -6.11949,-1.32565 -11.25344,-1.32178 -8.04791,0.006 -11.42584,1.0537 -23.70272,7.35123 -15.12859,7.76037 -22.89206,9.38846 -29.26412,6.13702 -5.59782,-2.85635 -9.16746,-8.14745 -15.15007,-22.45617 -9.65508,-23.09197 -25.05866,-40.47231 -43.89762,-49.53094 -7.6645,-3.68545 -12.36234,-4.72061 -19.69971,-4.34081 -7.08533,0.36673 -10.15854,1.30044 -24.00894,7.29442 -12.31968,5.33154 -17.06423,8.45654 -20.64897,13.60049 -5.60985,8.04991 -12.882848,24.88203 -21.281491,49.25237 -7.766095,22.53491 -8.303579,23.64927 -17.830877,36.96859 -7.008256,9.79765 -8.789075,11.69199 -22.568276,24.00689 -17.459009,15.60365 -18.936813,17.54125 -21.341468,27.98143 -2.957498,12.84046 -6.849013,18.3586 -16.035599,22.73836 -6.618948,3.15562 -14.306946,4.94264 -33.028867,7.67735 -17.672635,2.58143 -23.533209,3.91569 -28.518941,6.49279 -10.184141,5.26413 -16.441451,15.08112 -18.582891,29.15432 -0.99403,6.5326 -0.31041,24.77926 1.18881,31.73081 2.00311,9.28803 5.43781,15.65907 12.02508,22.30529 2.017207,2.03528 3.457472,3.70051 3.200577,3.70051 -0.256876,0 -2.310117,-1.95573 -4.562747,-4.34609 z m 23.11827,2.45613 c -15.460239,-12.72842 -20.65231,-19.47629 -23.37583,-30.38033 -1.80772,-7.23746 -1.43576,-18.77582 0.91227,-28.29984 2.335242,-9.47212 8.163739,-17.19189 15.695583,-20.7886 10.350716,-4.94282 35.836883,-9.05326 56.133241,-9.05326 7.853644,0 11.749869,0.96766 14.74751,3.66271 3.925847,3.52954 5.355037,8.16986 6.843401,22.21932 1.016418,9.59444 2.109815,14.41979 6.11938,27.00603 3.948234,12.39371 4.578235,15.56363 4.588042,23.08537 0.0079,6.36767 -0.794092,13.07795 -1.676228,14.01812 -0.240456,0.25623 -0.09501,-1.20632 0.323215,-3.2501 1.037657,-5.07106 0.978562,-16.38343 -0.11049,-21.14844 -0.482833,-2.11256 -2.14857,-7.8298 -3.701641,-12.70495 -3.989187,-12.52226 -5.096271,-17.38423 -6.078703,-26.69566 -1.687273,-15.99181 -3.566953,-20.8455 -9.218573,-23.80394 -2.492193,-1.30459 -3.763804,-1.5297 -9.671665,-1.71221 -19.141948,-0.59133 -47.915657,3.87078 -58.465301,9.06656 -7.112362,3.50289 -12.614685,10.8912 -14.950911,20.07554 -2.4556,9.65363 -2.63809,23.3688 -0.40522,30.45631 2.659855,8.44289 9.038436,16.62564 19.881704,25.50528 3.111,2.54761 5.442486,4.63205 5.181088,4.63205 -0.261389,0 -1.508287,-0.85046 -2.770872,-1.88996 z m 20.499762,-0.56677 c -1.42832,-1.3245 -6.752043,-5.48623 -11.83051,-9.24825 -18.766655,-13.90194 -22.795361,-20.18576 -22.795361,-35.5554 0,-6.26718 1.349391,-12.90931 3.499238,-17.22434 2.093663,-4.20228 7.072328,-9.0428 11.691675,-11.36727 8.736888,-4.39643 21.030585,-6.38656 31.645738,-5.12292 9.950453,1.18452 15.829405,3.67929 19.76508,8.38743 3.484927,4.16893 4.177853,6.68529 7.483091,27.17494 0.505962,3.13651 2.111606,9.91585 3.568082,15.06525 3.535817,12.50073 4.156941,17.05685 3.225063,23.65645 -0.399263,2.82765 -0.990706,5.55627 -1.314326,6.06369 -0.50428,0.79072 -0.543136,0.77382 -0.27184,-0.1183 0.174107,-0.57249 0.635701,-3.30116 1.02578,-6.0637 0.910916,-6.45121 0.274789,-11.10548 -3.194105,-23.3696 -2.566925,-9.07533 -3.373904,-12.98611 -5.280602,-25.59096 -1.688986,-11.16554 -4.171223,-16.35696 -9.492917,-19.85371 -10.444222,-6.86266 -32.89989,-6.7982 -46.680843,0.13399 -10.044276,5.05255 -15.092012,14.49416 -15.092012,28.22905 0,14.94288 3.847631,21.18131 20.77552,33.68482 4.602353,3.39942 10.055925,7.61884 12.119055,9.37643 4.99847,4.25823 4.941918,4.20333 4.299378,4.1749 -0.30154,-0.0136 -1.716865,-1.10792 -3.145184,-2.4325 z m 72.373756,1.57034 c 0.16041,-0.65002 0.597083,-3.57511 0.970387,-6.50021 1.237169,-9.69388 0.316623,-18.25797 -4.096916,-38.11486 -2.501348,-11.25376 -1.505981,-18.93636 3.043869,-23.49375 3.45401,-3.45972 7.439684,-5.11216 18.935903,-7.85074 19.190585,-4.5715 22.716819,-5.84823 40.351309,-14.60982 12.29002,-6.10623 15.45162,-7.37866 21.52584,-8.66339 11.3452,-2.39957 20.37103,-0.23249 27.60854,6.62876 6.18809,5.86637 10.0779,12.9389 15.18075,27.60192 5.09985,14.65436 7.85236,21.3185 12.44776,30.13734 2.54039,4.87515 6.85201,13.38451 9.58139,18.90969 2.72948,5.52518 5.98479,11.64129 7.23418,13.59135 1.92199,2.9999 2.00008,3.22942 0.50762,1.49126 -1.67546,-1.95112 -7.59859,-13.28335 -19.31136,-36.94694 -2.89567,-5.85019 -6.4036,-13.96069 -7.79539,-18.02331 -7.29413,-21.29144 -10.86475,-28.72428 -16.77183,-34.91333 -7.53118,-7.89069 -16.71729,-10.41635 -28.68166,-7.88581 -6.14412,1.29952 -9.26081,2.5631 -22.10295,8.96105 -16.95312,8.44604 -20.574529,9.74772 -39.819744,14.31282 -11.460937,2.71861 -16.284547,4.81128 -19.240324,8.34719 -3.874482,4.63494 -4.44804,11.98379 -1.841953,23.60036 2.789468,12.43392 3.807984,18.51398 4.161603,24.84259 0.356171,6.37422 -0.57639,17.16882 -1.630485,18.87329 -0.428578,0.69298 -0.484555,0.62852 -0.256539,-0.29546 z m 15.195287,-5.22445 c 0.07631,-3.30176 0.231184,-12.78408 0.344187,-21.07185 0.220583,-16.1771 0.602161,-18.70151 3.627355,-23.99781 1.735709,-3.03875 7.170515,-8.38005 10.635639,-10.45266 1.444778,-0.86416 5.35762,-2.60852 8.695225,-3.87634 7.892679,-2.99811 8.762689,-3.48492 13.835039,-7.74115 5.02216,-4.21412 12.5602,-8.3641 17.83667,-9.81977 5.07082,-1.39893 15.12332,-1.39962 20.19843,-10e-4 5.75571,1.58575 11.13375,4.75532 14.63011,8.6223 4.13637,4.57486 7.66243,11.80431 11.82972,24.25443 1.91,5.70628 4.82379,13.55085 6.4751,17.43237 1.6513,3.88157 3.63708,8.78213 4.41286,10.89027 1.27677,3.46951 5.35744,19.76761 5.35744,21.39744 0,1.71523 -0.63289,-0.41441 -2.05834,-6.92609 -2.00659,-9.16653 -3.57617,-14.01823 -7.82156,-24.17699 -1.90991,-4.57048 -5.04059,-12.96334 -6.95704,-18.65102 -3.96615,-11.77081 -6.80829,-17.7909 -10.73117,-22.73038 -7.12832,-8.97555 -21.25689,-12.89553 -34.75845,-9.64374 -5.7421,1.38296 -13.83876,5.92455 -18.84789,10.57219 -2.86748,2.66054 -6.2027,4.43636 -13.181039,7.01815 -6.648226,2.45967 -10.46388,4.67709 -14.421704,8.38101 -3.832746,3.58687 -6.925537,9.65584 -7.78,15.26669 -0.321721,2.11256 -0.590879,11.95152 -0.598143,21.86434 -0.0069,9.91281 -0.203986,18.33147 -0.437178,18.70814 -0.233193,0.37659 -0.361566,-2.01667 -0.285261,-5.31836 z m 19.741932,4.55482 c -1.385585,-3.73166 -1.85953,-10.27034 -1.185468,-16.35472 2.168664,-19.57544 8.753551,-29.32659 23.822311,-35.277 6.30491,-2.48969 10.6358,-3.34658 20.38617,-4.03345 17.50405,-1.23311 20.78419,0.76648 26.82783,16.35431 1.0513,2.71152 3.25097,6.9911 4.88816,9.51017 1.89489,2.91558 3.42867,6.1707 4.22035,8.95675 1.48086,5.21151 3.04922,15.78588 2.93912,19.81661 -0.058,2.12237 -0.20195,1.55898 -0.54792,-2.14407 -1.20032,-12.84755 -3.21843,-20.68703 -6.54658,-25.43059 -2.41366,-3.44015 -4.21049,-7.02208 -6.60355,-13.16402 -3.57048,-9.16383 -7.04456,-12.57009 -13.67971,-13.41269 -4.48027,-0.56894 -17.09277,0.22894 -23.07942,1.46004 -13.098,2.69346 -23.00746,9.53602 -27.33042,18.87188 -4.773801,10.30948 -6.412669,24.92917 -3.793524,33.84043 0.823941,2.80335 0.606228,3.49373 -0.317349,1.00635 z M 205.588,605.33102 c 0.11876,-0.32501 0.90537,-2.05348 1.748,-3.84103 1.96059,-4.15895 2.95929,-8.15062 4.47125,-17.87204 2.59647,-16.69428 4.08715,-24.15408 5.78903,-28.97009 4.87781,-13.80344 15.78001,-25.56836 29.72255,-32.07445 4.25143,-1.98387 11.12339,-4.12373 11.61774,-3.6176 0.14064,0.14409 -1.12152,0.59771 -2.80509,1.00804 -7.25586,1.76853 -17.81424,7.64549 -24.19698,13.46839 -6.02676,5.49818 -12.26926,15.78001 -14.86039,24.47592 -0.65359,2.19334 -1.97513,8.97424 -2.93692,15.06866 -3.23502,20.50006 -4.09002,24.47595 -6.13186,28.51317 -1.30095,2.5726 -2.85735,5.04558 -2.41733,3.84103 z m 18.39647,-2.82954 c 0.249,-1.69384 0.8637,-7.73331 1.36598,-13.42098 1.06471,-12.05736 2.11329,-18.38448 4.14959,-25.03999 4.35783,-14.24274 13.4953,-23.88389 25.29069,-26.68501 2.14388,-0.5091 4.01787,-0.80286 4.16445,-0.65279 0.14657,0.15008 -1.24742,0.58584 -3.09765,0.96838 -13.73589,2.83987 -23.48955,14.47204 -27.4989,32.79517 -0.8458,3.86526 -1.67833,10.80164 -3.31727,27.63523 -0.37222,3.82401 -0.8643,7.07134 -1.09331,7.2163 -0.22892,0.14488 -0.21259,-1.12242 0.0366,-2.81631 z m 12.14812,1.22481 c -0.13114,-3.33194 1.53096,-14.62523 3.06232,-20.80669 3.37872,-13.63881 9.90111,-22.09659 18.20387,-23.60588 1.52463,-0.27713 1.30561,-0.10776 -0.8928,0.69071 -1.60193,0.58183 -3.86981,1.66359 -5.03973,2.40392 -6.90561,4.37018 -11.88883,16.18761 -13.96075,33.10682 -1.40933,11.50791 -1.27473,10.70301 -1.37291,8.21112 z m 16.68182,1.18369 c -0.0178,-0.55659 0.5088,-2.49295 1.17012,-4.30302 1.2,-3.28408 3.27253,-5.41786 4.69432,-4.83302 0.47278,0.19459 0.38351,0.32123 -0.24762,0.35106 -1.60835,0.0759 -3.3042,2.43576 -4.48124,6.23554 -0.60669,1.95875 -1.11767,3.10604 -1.13558,2.54944 z M -53.563872,584.3195 c -11.602197,-1.57742 -23.023477,-9.17428 -27.357652,-18.19693 -1.741063,-3.62444 -1.878839,-4.34524 -1.878839,-9.82962 0,-7.41063 1.096979,-10.60375 5.150615,-14.99259 5.342973,-5.78479 11.515044,-8.00577 21.317775,-7.67105 5.731726,0.19571 6.834524,0.41646 10.204667,2.04279 4.981922,2.40412 7.679288,4.91773 9.495301,8.84845 3.179874,6.88281 3.242828,17.19257 0.176473,28.90023 -1.081312,4.12857 -1.609582,5.1143 -4.170163,7.78152 -2.690469,2.80253 -3.193492,3.0772 -6.106048,3.33431 -1.745725,0.15417 -4.820176,0.0567 -6.832129,-0.21711 z m 12.673275,-3.51183 c 2.224421,-2.39556 2.868693,-3.63934 3.881617,-7.49331 2.007183,-7.63698 2.737885,-15.39523 1.962834,-20.84034 -1.168603,-8.2099 -4.394319,-12.9138 -11.108506,-16.19897 -3.360423,-1.64423 -4.420477,-1.85825 -10.177321,-2.05482 -6.798182,-0.23212 -10.750335,0.52619 -15.399254,2.95473 -3.50006,1.82839 -7.145021,5.62982 -8.8932,9.27497 -1.43882,3.00008 -1.598834,3.9547 -1.598834,9.53847 0,5.65131 0.150196,6.521 1.683898,9.75031 5.208384,10.96662 20.745889,19.33766 33.80762,18.21424 2.903501,-0.24973 3.401357,-0.51783 5.841146,-3.14528 z m -22.776092,-23.53621 c -2.225797,-2.51841 -0.459971,-6.60141 2.855006,-6.60141 2.169206,0 4.846373,2.12181 4.846373,3.84103 0,3.04913 -5.654836,5.07598 -7.701379,2.76038 z m 5.788613,-0.79513 c 1.653515,-1.59063 1.664669,-2.12141 0.08086,-3.84768 -1.606108,-1.75059 -4.786447,-1.87705 -5.650085,-0.22467 -2.117336,4.05111 2.262227,7.25355 5.569207,4.07235 z m 235.781996,15.74906 c -6.02833,-1.68837 -11.83805,-5.9243 -17.19814,-12.53927 -6.03688,-7.4503 -8.50713,-13.22604 -13.20738,-30.88041 -3.57971,-13.44559 -7.61207,-18.92604 -23.6741,-32.17588 -10.2985,-8.49541 -17.83477,-11.28648 -26.52302,-9.82281 -5.46488,0.92065 -8.24954,2.32095 -18.8028,9.45519 -15.07466,10.19082 -19.93645,12.0327 -36.041344,13.65423 -13.157177,1.32473 -28.256642,-0.16917 -35.946273,-3.55644 -6.121686,-2.69659 -9.670379,-8.49062 -11.54906,-18.85638 -1.121751,-6.18936 -0.458001,-11.53629 2.089941,-16.83594 1.44558,-3.00676 3.436462,-5.26181 11.729115,-13.28539 8.032452,-7.77185 11.756599,-10.87187 19.021205,-15.83349 9.244483,-6.31387 13.903358,-10.61654 15.940242,-14.72155 1.79416,-3.61586 3.851392,-10.87337 6.185444,-21.82098 3.68565,-17.28726 5.91926,-23.16202 14.17021,-37.26996 7.57589,-12.95366 11.96825,-16.47523 28.55272,-22.89207 3.81616,-1.47654 9.13988,-3.78686 11.83051,-5.13404 4.82113,-2.41392 4.96729,-2.44601 10.0859,-2.21421 4.2987,0.19466 5.86985,0.55413 9.11583,2.08561 5.47826,2.5847 17.68487,11.38815 23.11843,16.6731 7.9423,7.72508 12.02539,14.83843 17.97703,31.31918 4.20739,11.65037 5.90769,15.48931 9.0761,20.49118 7.11879,11.23819 16.43955,15.71 26.9812,12.94464 2.01195,-0.52779 7.99337,-3.06285 13.29201,-5.63346 10.96751,-5.32091 13.77775,-6.2653 21.05281,-7.07497 7.45598,-0.8298 22.39118,-1.34763 23.15988,-0.803 0.35916,0.25445 -3.53628,0.53075 -8.65648,0.61401 -11.36576,0.1848 -19.14953,1.04195 -23.73696,2.61391 -1.90438,0.65259 -7.50982,3.15022 -12.45642,5.5503 -4.9467,2.40008 -10.64071,4.79578 -12.65346,5.32378 -5.08011,1.33266 -10.32955,0.93157 -14.66947,-1.12085 -9.36916,-4.43071 -14.45085,-12.03271 -21.99669,-32.90554 -6.98507,-19.32194 -12.17092,-27.22896 -23.6344,-36.03627 -18.94132,-14.55245 -25.31306,-16.34057 -37.51136,-10.5269 -3.17404,1.51273 -8.36792,3.72903 -11.54195,4.9251 -14.62328,5.51045 -19.41339,9.46889 -26.97993,22.29552 -8.21193,13.92069 -10.28953,19.37868 -13.998418,36.77494 -5.020355,23.54757 -6.747117,26.44042 -21.884378,36.66283 -9.018101,6.09005 -11.701058,8.35562 -22.422385,18.9341 -8.220801,8.11128 -9.8777,10.82381 -10.951798,17.92933 -0.481417,3.18475 -0.421135,5.03289 0.292624,8.97109 1.815815,10.01893 4.781122,15.10434 10.468895,17.95379 12.406295,6.2153 44.659253,5.58748 58.30876,-1.13501 2.37589,-1.17014 8.29171,-4.82543 13.14627,-8.12287 4.85455,-3.29744 10.38464,-6.73998 12.28906,-7.6501 7.58417,-3.62448 15.98259,-3.50796 23.77567,0.32987 4.43593,2.18455 6.9279,4.03215 16.24337,12.04314 10.73085,9.22815 15.05195,15.81501 18.292,27.88327 3.41663,12.726 5.51253,18.77323 7.98752,23.0462 7.90767,13.65205 19.64437,21.93128 28.44752,20.06734 5.98351,-1.26689 9.67873,-5.73482 17.92696,-21.67544 4.63108,-8.95003 8.44389,-14.02378 15.22311,-20.25747 7.05247,-6.48488 18.81758,-15.56541 24.41926,-18.84726 4.11753,-2.41232 11.68247,-5.40909 15.62008,-6.18767 2.57608,-0.5094 0.37638,0.38793 -5.64622,2.30323 -7.99852,2.54368 -19.54155,10.28177 -32.81832,22.00044 -8.38747,7.40306 -10.83242,10.89596 -21.2651,30.37997 -5.81249,10.85519 -12.11685,14.8133 -20.05382,12.59034 z m -2.16624,-35.90717 c -3.68989,-1.80663 -7.94706,-6.59551 -11.18614,-12.58317 -8.03217,-14.84797 -10.04116,-17.28735 -22.28375,-27.05722 -10.53384,-8.40625 -14.51786,-12.63073 -17.63493,-18.69933 -2.33896,-4.55371 -2.85577,-5.16093 -5.61306,-6.59499 -8.48515,-4.41316 -19.86932,-2.20603 -36.21368,7.02096 -4.11491,2.32303 -8.90999,4.63043 -10.65572,5.12755 -1.74571,0.49713 -8.23807,1.47474 -14.42744,2.17248 -15.024368,1.69372 -25.811619,1.40885 -32.696855,-0.86347 -9.081777,-2.99722 -15.202265,-8.76209 -15.202265,-14.31896 0,-3.34277 0.683197,-4.99936 3.271767,-7.93326 3.200202,-3.62715 7.541177,-6.41743 18.785192,-12.07474 12.694227,-6.38698 15.761493,-8.85506 19.836381,-15.9614 1.6773,-2.92509 4.7203,-7.97753 6.76223,-11.22763 4.76395,-7.5827 7.5665,-13.33903 12.52511,-25.72615 6.85179,-17.11641 9.40132,-21.4307 17.13236,-28.99109 10.35448,-10.12594 21.90371,-15.82316 30.74896,-15.16843 10.41501,0.77092 24.61146,13.59862 32.21791,29.11163 1.2749,2.60008 3.78317,9.08672 5.57397,14.41473 3.43573,10.22218 4.67156,13.05267 8.49189,19.44992 5.92916,9.92864 9.37341,12.95754 24.73408,21.75158 11.92564,6.82748 17.48377,13.70132 19.11479,23.63994 0.58986,3.59401 0.54424,4.97416 -0.31274,9.45485 -2.66367,13.92737 -9.91656,21.59391 -19.62785,20.74747 -3.6215,-0.31565 -15.29031,-4.81095 -23.62711,-9.1021 -7.86373,-4.04768 -11.21012,-9.47881 -11.7779,-19.11547 -0.27824,-4.7226 -0.177,-5.32682 1.63382,-9.75031 1.88447,-4.60332 1.93089,-4.91999 1.94801,-13.28419 0.0218,-10.43481 -0.37064,-11.94205 -6.61068,-25.40991 -2.5412,-5.48468 -5.3217,-12.58488 -6.35563,-16.22953 -2.23882,-7.89189 -3.54709,-10.60763 -8.07289,-16.75777 -6.39037,-8.6839 -11.83799,-12.52412 -17.73382,-12.50119 -4.53112,0.0176 -7.53166,1.53677 -12.25199,6.20308 -10.36436,10.24573 -16.91478,23.90136 -18.62502,38.82742 -1.49551,13.05204 1.68373,19.18683 14.92846,28.80644 10.58198,7.68567 12.57476,9.63354 17.21359,16.82578 2.31713,3.59259 4.95626,7.22689 5.86475,8.07623 2.57864,2.41079 17.70874,13.33759 24.73568,17.86388 9.81498,6.32213 11.13731,7.33957 17.31292,13.32115 7.72487,7.48216 10.83163,9.94486 15.29308,12.12284 3.30222,1.61202 4.33833,1.8286 8.65647,1.80943 4.08843,-0.0181 5.46956,-0.2886 8.29336,-1.62408 5.00667,-2.36785 9.92981,-6.18431 17.54117,-13.59785 12.28351,-11.9644 17.18488,-15.63272 25.02308,-18.72786 4.65919,-1.83985 16.09681,-4.91995 16.5492,-4.45666 0.13747,0.14071 -0.49495,0.42647 -1.40527,0.63502 -17.29335,3.96191 -23.12682,7.09816 -35.95338,19.32961 -11.89387,11.34198 -14.99389,13.88979 -20.07539,16.49882 -3.91148,2.0083 -5.48014,2.48208 -8.94507,2.70155 -7.47963,0.47381 -13.20947,-2.65581 -24.11157,-13.16967 -4.17879,-4.02993 -9.09451,-8.02671 -13.27327,-10.79184 -15.3483,-10.15619 -29.02488,-20.10107 -31.32209,-22.77575 -0.88085,-1.02558 -2.6987,-3.72082 -4.03968,-5.98942 -3.52057,-5.95591 -8.19859,-10.77286 -15.27402,-15.72766 -8.58143,-6.0094 -14.60096,-12.20193 -16.2352,-16.7018 -1.70084,-4.68325 -2.07377,-9.18002 -1.27257,-15.34491 1.90099,-14.62743 8.2391,-27.69717 18.55334,-38.2586 4.38422,-4.48928 8.27006,-6.44542 12.81942,-6.45328 5.85069,-0.0101 11.01286,3.55636 17.85057,12.33277 4.05705,5.20733 6.23488,9.45566 7.91252,15.43508 1.98034,7.05832 2.80674,9.19832 7.33652,18.99824 5.65312,12.23024 6.77375,16.79756 6.41915,26.16233 -0.2406,6.35111 -0.47813,7.65559 -2.15871,11.8523 -1.75974,4.39447 -1.86818,5.0587 -1.59176,9.75031 0.5416,9.19228 3.54698,14.32674 10.64211,18.18089 3.74907,2.03655 16.4153,7.50849 20.31698,8.77711 9.87212,3.20997 18.10461,-2.5341 21.91216,-15.28889 4.39584,-14.72483 -0.53691,-26.66312 -14.42739,-34.91793 -19.05016,-11.32101 -20.73888,-12.66328 -25.93043,-20.61085 -4.8982,-7.49829 -6.84592,-11.68554 -10.65992,-22.91636 -1.81874,-5.35561 -4.21781,-11.59889 -5.33126,-13.87396 -7.66433,-15.66024 -21.56068,-28.34733 -31.88639,-29.11163 -8.5382,-0.632 -19.5979,4.73228 -30.18594,14.64106 -6.975,6.52753 -10.76181,12.88726 -16.86174,28.31828 -5.17899,13.10135 -7.69785,18.40244 -11.73703,24.70116 -1.87626,2.92589 -4.93186,8.05062 -6.79019,11.3883 -4.940321,8.87307 -7.516321,11.03625 -21.803395,18.30924 -16.465661,8.38201 -21.106603,12.56153 -21.106603,19.00806 0,2.21989 0.375887,3.27483 1.89222,5.31052 7.184737,9.64556 19.936406,12.2429 45.875458,9.34419 13.1613,-1.47079 15.6392,-2.14438 22.63825,-6.15401 11.18174,-6.4058 16.30166,-8.55766 23.35278,-9.81498 6.65066,-1.18592 14.41212,0.3222 17.80802,3.46025 0.60206,0.55636 1.95202,2.75324 2.99989,4.88196 3.28059,6.66441 5.70512,9.17542 20.12452,20.84225 9.35117,7.5661 12.7611,11.71194 18.52835,22.5267 4.76104,8.92809 7.83671,12.68863 12.14159,14.8453 2.69406,1.34965 3.7084,1.54127 7.11562,1.34413 7.24299,-0.41907 15.04308,-5.47628 39.89534,-25.8661 10.31768,-8.46507 14.83059,-11.5762 21.48868,-14.81377 4.46531,-2.17131 14.0608,-5.15858 14.64591,-4.55954 0.1447,0.14815 -2.00186,0.85102 -4.77013,1.56195 -9.81383,2.52037 -17.27267,6.9553 -31.94165,18.99213 -15.07,12.366 -25.92994,20.48408 -30.4863,22.78936 -3.60041,1.82164 -5.09862,2.23803 -8.71615,2.42243 -3.69959,0.18859 -4.81042,0.006 -7.25566,-1.19095 z m -507.55574,-12.07834 c -1.11091,-0.1321 -6.82418,-1.313 -12.69615,-2.62422 -7.31182,-1.63274 -12.25391,-2.4118 -15.68242,-2.47215 -3.36995,-0.0593 -4.59594,-0.24913 -3.75114,-0.58079 1.96407,-0.77105 8.42047,0.0759 19.89449,2.60964 18.18041,4.01473 23.23174,3.82564 40.53714,-1.51747 12.00867,-3.70772 16.15065,-4.60218 28.72782,-6.20378 12.04313,-1.53358 16.11606,-2.6043 20.20781,-5.31229 8.17012,-5.40716 13.68422,-16.66663 14.3593,-29.32086 0.60065,-11.25901 -2.2643,-18.86631 -13.10979,-34.81044 -5.07139,-7.45555 -7.64887,-10.50703 -16.22195,-19.20516 -5.60589,-5.68769 -11.01785,-11.60979 -12.02655,-13.16023 -6.18543,-9.50736 -7.58541,-19.07425 -4.11177,-28.09814 3.43979,-8.93595 13.01085,-26.44203 19.54366,-35.74657 7.62588,-10.86138 12.00511,-12.92217 31.57053,-14.85659 15.79334,-1.56147 18.99163,-3.03496 29.72054,-13.69264 8.57951,-8.52254 12.79036,-11.65779 17.77419,-13.23404 7.64576,-2.41812 12.71267,-1.33126 26.11308,5.60132 12.52066,6.47748 16.19629,7.61935 23.52062,7.30701 4.98584,-0.21264 5.98116,-0.45056 9.14207,-2.18539 4.80531,-2.63734 7.70631,-5.42999 7.70631,-7.41846 0,-1.98268 -4.18754,-6.67893 -8.84942,-9.92445 -1.85185,-1.28923 -8.12753,-4.68702 -13.94594,-7.55065 -11.84931,-5.83185 -15.96577,-8.49285 -20.25599,-13.09409 -3.1658,-3.39531 -3.81633,-4.323 -11.52551,-16.43622 -5.10951,-8.02844 -8.73639,-12.12731 -21.45233,-24.24415 -3.77789,-3.59989 -4.78135,-4.93039 -5.34486,-7.08683 -1.02924,-3.93873 -0.43623,-7.72359 2.01564,-12.86483 3.12935,-6.56182 12.68049,-16.15274 27.08317,-27.19599 26.86524,-20.59891 34.21202,-19.94488 49.37222,4.39524 6.41397,10.29783 21.88385,33.28457 31.389512,46.64176 9.999106,14.0506 12.303207,19.69568 10.81615,26.4998 -1.238902,5.66865 -5.174725,10.78187 -19.690512,25.58088 -15.35572,15.65533 -14.80729,14.52937 -11.38849,23.38114 1.5976,4.13637 1.8754,5.60053 1.87443,9.87898 -9.9e-4,4.5635 -0.1758,5.35273 -1.91075,8.62931 -1.05028,1.98352 -3.34647,5.44045 -5.10263,7.68206 -8.68373,11.08409 -10.72447,15.46849 -11.7201,25.17992 -0.35584,3.47066 -0.45663,3.77695 -0.51979,1.57939 -0.2301,-8.0059 2.5798,-14.97716 9.91837,-24.60692 9.66998,-12.68913 10.79545,-17.06949 7.07752,-27.5459 -3.52684,-9.93796 -4.28804,-8.31691 11.66756,-24.84679 7.555494,-7.82744 14.67319,-15.70247 15.81711,-17.50008 6.116331,-9.61148 4.989374,-16.09965 -5.334174,-30.70999 -11.531626,-16.32011 -22.194306,-32.03846 -30.866316,-45.50147 -5.12909,-7.96277 -10.45955,-15.63095 -11.84545,-17.04042 -7.24404,-7.36726 -15.04013,-7.5455 -26.30997,-0.60152 -7.30862,4.50326 -24.92766,18.64305 -31.13828,24.98938 -7.44398,7.60664 -10.49246,12.86798 -11.01622,19.01276 -0.46041,5.40137 1.4717,8.60851 9.21103,15.28944 3.39536,2.93103 7.79905,7.22356 9.78598,9.53894 3.80646,4.43569 4.82707,5.90253 12.72146,18.28359 7.3767,11.56916 11.45893,14.93121 26.91576,22.16731 10.3976,4.86764 15.05417,7.81239 19.43866,12.29274 4.78369,4.88825 4.94883,6.51746 1.0196,10.05899 -4.51144,4.0663 -8.28176,5.56142 -14.75582,5.85142 -7.31562,0.3277 -10.93866,-0.79527 -23.60218,-7.31558 -13.27289,-6.83404 -18.52533,-7.9621 -25.99917,-5.58383 -5.09271,1.62057 -8.4423,4.11792 -17.65977,13.16655 -11.33619,11.12858 -13.4972,12.12385 -29.86731,13.7557 -20.44755,2.03831 -24.09389,3.96487 -32.9556,17.41212 -7.15559,10.85829 -14.75299,25.03214 -17.6127,32.85858 -4.80243,13.14327 -0.29119,25.47121 14.25263,38.9483 9.03579,8.37304 11.18591,10.89772 18.34779,21.54395 10.9521,16.28048 13.50932,23.12519 12.90084,34.53079 -0.53119,9.95707 -4.29016,19.64672 -9.99933,25.77563 -5.66691,6.08355 -9.31745,7.40361 -26.87069,9.71661 -11.50646,1.51622 -16.97398,2.75139 -28.75742,6.49661 -10.71486,3.40558 -18.40948,4.40068 -26.5465,3.43307 z m -31.87428,-19.81214 c 0.86716,-0.24496 10.14655,-0.41709 20.62088,-0.3825 21.39313,0.0706 22.38951,-0.0363 42.20437,-4.52899 15.34785,-3.47989 20.75396,-5.11321 26.59386,-8.03468 9.04714,-4.52591 13.75489,-11.12859 14.42746,-20.23465 0.88608,-11.99688 -3.18553,-19.76937 -19.85973,-37.91118 -11.45289,-12.46093 -13.20574,-14.68781 -20.90379,-26.55669 -6.04382,-9.31838 -9.31462,-13.07555 -13.33204,-15.31451 -1.51788,-0.84593 -7.65435,-2.84894 -13.63657,-4.45111 -12.00433,-3.21503 -17.64538,-5.38049 -22.35516,-8.58159 -6.20283,-4.21587 -10.4477,-10.61101 -11.94486,-17.99559 -0.99704,-4.91779 -0.32338,-14.11798 1.47444,-20.13661 0.82521,-2.76259 1.65045,-7.01728 1.83387,-9.45485 0.3188,-4.2367 0.26635,-4.49581 -1.19071,-5.88114 -1.09807,-1.04402 -2.12442,-1.42864 -3.67108,-1.37573 l -2.14688,0.0735 2.01984,-0.50636 c 1.80897,-0.4535 2.21565,-0.3132 3.8954,1.34391 1.63073,1.60872 1.87558,2.24054 1.87558,4.83959 0,1.64412 -0.90445,6.57791 -2.00987,10.96399 -3.90609,15.49846 -2.14646,25.81085 5.79738,33.97576 5.11268,5.25497 13.89557,9.10419 29.68416,13.00949 12.29545,3.04125 15.19882,5.3453 24.26278,19.25433 8.13266,12.47993 9.97913,14.84923 19.51451,25.03992 10.16614,10.86483 13.82591,15.4273 17.11378,21.33503 6.74072,12.1119 5.48745,25.98739 -3.07066,33.99647 -5.91227,5.53297 -13.60054,8.48414 -34.37171,13.19368 -19.45451,4.41101 -20.70032,4.54365 -43.78102,4.66105 -11.34148,0.0577 -19.91139,-0.0956 -19.04423,-0.34049 z m -1.30885,-12.76502 c 0.31741,-0.31652 7.1993,-1.53278 15.2931,-2.70281 8.09379,-1.17004 18.09201,-2.91367 22.21826,-3.87474 4.12625,-0.96107 10.48876,-2.03069 14.1389,-2.37693 12.54851,-1.1903 16.68576,-1.79033 20.36257,-2.95319 8.21127,-2.59699 11.63588,-7.48762 11.58363,-16.54237 -0.0242,-4.20924 -0.38006,-6.07582 -2.1962,-11.52309 -4.0596,-12.17623 -10.22886,-22.63243 -16.56217,-28.07102 -1.69874,-1.45876 -6.26776,-5.78191 -10.15339,-9.607 -11.58061,-11.40018 -15.07656,-13.20915 -36.79467,-19.03931 -6.87494,-1.84555 -18.34526,-5.65188 -18.02381,-5.98104 0.12511,-0.12811 2.15411,0.4446 4.50887,1.27269 2.35476,0.8281 9.88065,3.07859 16.7242,5.0011 19.26654,5.41239 22.129,6.86274 31.41661,15.9181 2.85664,2.78521 7.88823,7.58725 11.1813,10.67122 6.7903,6.35912 9.73498,10.30449 13.60387,18.22691 7.83374,16.04134 9.00337,28.19749 3.36238,34.94565 -3.78901,4.5327 -10.21203,6.644 -23.3459,7.67398 -9.69224,0.76009 -9.99735,0.80672 -19.94561,3.0481 -4.20293,0.94692 -14.07131,2.64977 -21.92971,3.78411 -7.85842,1.13432 -14.67757,2.20702 -15.15367,2.38376 -0.56887,0.21118 -0.6678,0.12405 -0.28856,-0.25412 z m 271.524521,-2.98144 c -13.296671,-3.02521 -22.082021,-8.18768 -25.455161,-14.95804 -0.63091,-1.26632 -1.79412,-4.6146 -2.58491,-7.44061 -2.80429,-10.02165 -7.39516,-18.07787 -13.92971,-24.44435 -1.89176,-1.84312 -4.38683,-3.75639 -5.54458,-4.25172 -3.73969,-1.59999 -5.00154,-3.40703 -5.00154,-7.1625 0,-3.98057 0.97697,-6.5089 3.42815,-8.8718 1.74367,-1.68088 2.12882,-1.78267 7.42907,-1.9634 7.15825,-0.24408 14.53775,0.90988 29.78258,4.65722 15.836518,3.89279 22.311881,4.89533 28.926089,4.47845 18.997808,-1.1974 27.227873,4.47429 27.851104,19.19335 0.24692,5.83176 -1.280171,17.84318 -3.136742,24.67216 -2.034934,7.48504 -7.767273,12.99262 -16.372046,15.7301 -4.998648,1.59025 -19.108041,1.79093 -25.392304,0.36114 z m 25.824058,-1.11148 c 6.826834,-2.24603 11.782045,-6.46731 14.340042,-12.21612 1.709275,-3.84141 4.272429,-19.3515 4.272429,-25.8532 0,-15.44466 -8.082402,-21.40173 -27.386541,-20.18502 -6.614208,0.41687 -13.089571,-0.58567 -28.926089,-4.47844 -15.23212,-3.74423 -22.62684,-4.90144 -29.76,-4.65723 -4.59119,0.15719 -5.79105,0.39786 -6.84232,1.37247 -2.14477,1.98838 -3.46038,5.31025 -3.46038,8.73737 0,3.5968 0.80692,4.68666 5.1068,6.89742 3.23583,1.66368 9.04983,7.71925 12.47179,12.98995 3.03411,4.67332 4.9924,9.26187 7.06882,16.56321 1.7147,6.02937 2.50328,7.66426 5.13623,10.64847 4.04907,4.58922 11.87399,8.36975 22.155161,10.704 6.699925,1.52118 20.457867,1.2426 25.824058,-0.52288 z m -25.23509,-10.79617 c -3.467667,-1.5092 -4.374842,-4.15469 -2.617766,-7.63393 1.956758,-3.87463 10.036339,-8.88166 14.331867,-8.88166 4.858952,0 8.782038,4.41727 8.28719,9.33111 -0.499114,4.95607 -4.518724,7.29211 -13.087987,7.60624 -3.035922,0.11129 -6.120953,-0.0769 -6.913304,-0.42176 z m 15.095972,-1.5954 c 5.553956,-2.52017 6.032137,-8.46937 1.027344,-12.78155 -3.261118,-2.80981 -7.859048,-1.91304 -14.283699,2.78588 -5.132425,3.75379 -6.24031,8.60133 -2.428585,10.62621 2.814438,1.4951 11.796167,1.13403 15.68494,-0.63054 z m -284.035411,-0.55767 c 4.53902,-1.04479 27.59298,-7.88014 33.19948,-9.84343 17.79529,-6.23158 24.68773,-13.03666 23.77284,-23.47156 -0.58824,-6.70936 -4.14961,-11.55779 -13.57095,-18.47542 -16.24525,-11.92811 -20.22002,-13.38577 -39.65024,-14.54094 -6.77889,-0.40302 -7.02895,-0.4546 -2.59341,-0.53489 6.63758,-0.12017 18.48968,1.36511 23.08038,2.89236 5.08484,1.69165 8.7406,3.84056 17.72461,10.41873 12.25223,8.97119 15.41089,13.42245 15.44129,21.76026 0.0151,4.154 -0.19041,5.11128 -1.69462,7.89208 -2.25176,4.16279 -5.64851,7.1394 -11.47096,10.05215 -6.23664,3.11994 -10.18535,4.53544 -25.7713,9.23834 -12.30738,3.71362 -20.01557,5.69837 -21.53462,5.54485 -0.376,-0.038 1.00437,-0.45764 3.0675,-0.93253 z m 475.75512,-49.46941 c -7.77884,-1.93329 -10.03719,-6.21156 -10.03719,-19.0146 0,-9.47089 1.88374,-15.24884 6.3049,-19.33882 2.26989,-2.09985 3.50494,-2.48698 6.96395,-2.18283 5.63492,0.49546 12.09137,8.38523 14.13889,17.27768 1.00516,4.3655 1.12936,13.36118 0.23025,16.67731 -1.68283,6.20662 -8.64043,8.8082 -17.6008,6.58126 z m 13.11949,-1.39638 c 3.33108,-2.112 4.20025,-4.33681 4.4387,-11.3619 0.14476,-4.26478 -0.0748,-7.45581 -0.70224,-10.20611 -3.2634,-14.30482 -14.61016,-21.66012 -21.48987,-13.93036 -3.63178,4.08052 -5.10441,10.52131 -4.70068,20.55914 0.31257,7.77121 1.57531,11.58086 4.57794,13.81145 3.84807,2.85867 14.12365,3.50693 17.87615,1.12778 z M -93.401145,394.34534 c -8.421705,-1.87117 -16.442245,-7.7415 -19.189675,-14.04516 -1.96241,-4.50256 -1.89112,-10.86087 0.16694,-14.8861 1.89871,-3.71356 6.62476,-8.32346 14.041882,-13.69675 3.174034,-2.29942 7.148881,-5.6759 8.832997,-7.50331 5.615189,-6.09296 6.678142,-10.89957 5.028982,-22.74061 -2.071256,-14.87158 -0.545679,-20.52713 7.717837,-28.61126 5.054952,-4.94521 11.153528,-8.41886 16.220722,-9.23907 4.002667,-0.6479 5.488953,-0.24126 7.441623,2.036 3.768901,4.39541 5.771313,13.31943 6.227425,27.75333 0.392701,12.42747 -0.211667,15.86902 -4.658727,26.52923 -3.690458,8.84652 -4.821908,12.94847 -6.455619,23.40419 -0.787135,5.03767 -1.831571,10.62193 -2.320976,12.4095 -1.636086,5.97591 -7.606674,13.78752 -12.464825,16.30832 -6.050566,3.13954 -13.174318,3.92901 -20.588586,2.28169 z m 17.320986,-1.4024 c 4.798996,-1.87234 7.56396,-4.19867 11.101321,-9.34025 3.626632,-5.27134 4.43657,-7.78126 6.155395,-19.075 1.667479,-10.95641 2.396123,-13.65603 6.619047,-24.52351 4.585232,-11.79988 5.137452,-14.95874 4.745028,-27.14311 -0.431359,-13.39335 -2.488284,-22.47713 -6.090025,-26.89485 -1.486563,-1.82332 -1.910311,-2.00468 -4.540577,-1.94334 -8.630921,0.20131 -20.455363,8.61268 -24.753663,17.60863 -2.12455,4.44651 -2.445133,10.17874 -1.106707,19.78869 2.178509,15.64175 -0.265714,20.83749 -14.720204,31.29094 -7.762756,5.61401 -10.932446,8.66484 -13.029606,12.54099 -1.44308,2.66721 -1.68622,3.75564 -1.6863,7.54856 -7e-5,3.65811 0.28208,5.02035 1.61599,7.80179 2.9169,6.08228 10.18274,11.28033 18.462821,13.20848 5.002993,1.16502 13.056654,0.75924 17.22748,-0.86802 z m -150.916821,-4.23009 c -1.71084,-1.37799 -1.94982,-3.30233 -0.71401,-5.74939 2.5925,-5.13351 9.42723,-6.19421 11.6429,-1.8069 0.8119,1.60769 0.79877,1.94229 -0.15432,3.93174 -2.11159,4.40773 -7.53651,6.23265 -10.77457,3.62455 z m 7.60135,-0.56188 c 2.48778,-1.55312 3.64091,-4.26074 2.79353,-6.55947 -1.96436,-5.3289 -11.33836,-1.6563 -11.33836,4.44222 0,3.14927 4.93359,4.37173 8.54483,2.11725 z m 90.25141,-13.28204 c 0.0118,-0.97502 0.1411,-1.30237 0.28741,-0.72742 0.14632,0.57496 0.1367,1.37271 -0.0214,1.77279 -0.15808,0.40008 -0.27779,-0.0703 -0.26603,-1.04537 z m 322.04867,-5.00866 c -5.29695,-2.46194 -9.38885,-6.968 -22.17968,-24.42476 -3.85586,-5.26232 -8.66697,-11.61619 -10.69149,-14.11972 -10.16727,-12.57306 -30.92319,-25.28998 -41.27702,-25.28998 -1.58248,0 -5.12012,0.55657 -7.86143,1.23683 -7.36138,1.82673 -16.84459,1.45384 -21.78375,-0.85655 -4.57345,-2.13932 -7.1767,-4.92929 -16.27764,-17.44517 -10.76983,-14.81097 -13.07293,-20.19724 -13.04352,-30.50483 0.0258,-9.04033 1.19735,-11.55324 10.21773,-21.91674 2.47163,-2.83964 6.88643,-9.04008 9.81066,-13.77873 5.62764,-9.11948 11.0407,-15.59812 15.02382,-17.98132 6.63445,-3.96953 19.96735,-5.84593 32.94586,-4.6366 9.11538,0.84936 13.99264,1.9996 28.33015,6.68127 18.48614,6.03636 23.92679,9.2005 34.09879,19.83112 6.28279,6.56606 6.445,6.68656 9.00267,6.68656 5.05398,0 8.87411,-4.44077 10.36667,-12.05083 0.50989,-2.59985 0.5092,-5.14151 0,-10.60519 -0.37054,-3.95222 -0.67082,-8.92493 -0.66715,-11.05047 0.0218,-12.64415 7.59324,-24.33542 19.62794,-30.30728 7.59503,-3.76882 13.49006,-5.1504 23.08387,-5.41006 l 7.79079,-0.21086 -7.50219,0.46926 c -22.81141,1.42681 -37.2575,11.23513 -41.50637,28.18122 -1.08946,4.3452 -1.14399,8.63995 -0.23624,18.60634 0.59718,6.55676 0.56195,7.95738 -0.28978,11.5231 -1.72069,7.20157 -5.73232,11.4457 -10.81896,11.4457 -2.74176,0 -2.80203,-0.0428 -8.42687,-5.97622 -6.91114,-7.29023 -11.05629,-10.62866 -17.24832,-13.89119 -4.73114,-2.49281 -22.42193,-8.61456 -32.26002,-11.16331 -14.94415,-3.87157 -34.19103,-3.24317 -43.95429,1.43511 -5.06695,2.42794 -8.85959,6.30521 -13.9184,14.22902 -2.38708,3.73897 -5.46182,8.53469 -6.83275,10.65715 -1.37092,2.12248 -4.73578,6.37715 -7.47745,9.45485 -5.91776,6.64309 -7.54429,9.66486 -8.40984,15.62383 -1.09864,7.56379 0.63412,15.6387 4.9196,22.926 3.00519,5.11022 16.74809,23.67744 18.91271,25.55185 1.05579,0.91424 3.34794,2.34475 5.09366,3.17893 4.53888,2.16884 14.26147,2.49236 21.4315,0.71311 2.7413,-0.68026 6.33123,-1.23683 7.97761,-1.23683 5.74821,0 16.02599,4.46516 25.99637,11.29407 8.08101,5.53483 15.13408,13.11454 26.27914,28.24144 16.42658,22.29541 20.39586,25.80805 28.67862,25.37976 3.47077,-0.17947 5.04062,-0.63461 9.09798,-2.63783 4.82101,-2.38028 12.02995,-7.47761 16.80157,-11.88008 1.33332,-1.23019 6.49607,-6.89028 11.47276,-12.57796 4.97678,-5.68769 10.66902,-11.87545 12.6495,-13.7506 3.43246,-3.24993 7.25645,-5.75003 8.79493,-5.75003 0.39232,0 -0.57115,0.65767 -2.1412,1.46148 -4.12832,2.11367 -7.90817,5.72987 -17.22833,16.48234 -10.74414,12.39534 -16.09899,17.56899 -23.18096,22.39667 -9.80611,6.68463 -17.23674,8.53237 -23.18838,5.76613 z m -526.42035,-3.07876 c -5.99115,-3.19582 -7.98532,-9.49268 -5.07073,-16.01156 2.65653,-5.94168 7.99724,-10.47031 12.34786,-10.47031 2.60742,0 5.48221,2.26799 7.11686,5.61467 1.25136,2.56196 1.44233,3.73766 1.43965,8.86307 -0.004,6.74847 -0.69625,8.65884 -4.10526,11.32132 -2.96565,2.31623 -8.10528,2.61545 -11.72838,0.68281 z m 10.44852,-0.60626 c 3.46654,-1.995 4.6949,-4.51861 4.98863,-10.24892 0.64734,-12.62916 -6.40911,-18.72372 -14.39607,-12.43364 -5.72964,4.51234 -8.36652,12.71085 -5.76659,17.92928 2.7514,5.52244 9.93009,7.77117 15.17403,4.75328 z m 519.87094,-19.89249 c -7.78238,-2.63703 -14.89285,-9.66553 -21.60101,-21.35189 -12.32003,-21.46296 -14.20887,-23.2441 -32.93476,-31.05672 -4.44365,-1.85393 -12.88644,-5.85274 -18.76175,-8.88624 -6.86123,-3.54253 -12.82905,-6.16846 -16.68359,-7.341 -7.12701,-2.168 -8.40555,-2.80523 -10.83751,-5.40132 -2.28043,-2.43434 -3.40764,-5.13224 -3.90969,-9.35754 -1.08164,-9.10318 4.74652,-26.00062 10.52712,-30.52094 2.75694,-2.15589 12.97908,-5.8208 19.61372,-7.03206 5.85827,-1.06953 10.7502,-1.05552 17.40656,0.0499 14.41636,2.39402 22.76096,7.65261 27.17639,17.12592 0.95397,2.04682 2.77689,7.80143 4.05102,12.78803 3.43494,13.44397 5.67057,17.3257 10.82253,18.79083 3.20414,0.91119 4.58209,0.76139 9.66517,-1.05059 14.8014,-5.27637 28.74661,-21.431 34.1269,-39.53398 1.49078,-5.01552 1.54462,-5.70218 1.63468,-20.84595 0.0861,-14.50814 0.18467,-15.89857 1.33708,-18.90969 2.83904,-7.41781 6.73706,-11.43093 13.82071,-14.22882 2.63427,-1.04045 4.72688,-1.33942 10.23632,-1.4624 l 6.9252,-0.1546 -6.9252,0.46671 c -7.34008,0.49467 -10.05917,1.25424 -15.13492,4.22788 -3.40852,1.99686 -6.30833,5.92531 -8.44943,11.44669 -1.03186,2.66107 -1.15468,4.51052 -1.23584,18.61423 -0.0871,15.15177 -0.14004,15.82793 -1.6327,20.85036 -3.24284,10.91133 -8.24912,19.54514 -15.91619,27.44884 -5.34545,5.51052 -10.94089,9.50847 -16.72755,11.95185 -7.50615,3.16949 -12.05311,2.91667 -16.17836,-0.8995 -2.80866,-2.59827 -4.1489,-5.83404 -6.9631,-16.81133 -3.44276,-13.4289 -6.25597,-18.54322 -12.57756,-22.86577 -5.7759,-3.94944 -18.08013,-7.25657 -27.02065,-7.26258 -7.60461,-0.005 -22.34943,3.99562 -27.22255,7.38635 -6.42363,4.46957 -12.36532,22.56245 -10.51071,32.0059 1.37018,6.97688 4.38872,9.73329 13.75744,12.56279 3.87376,1.16993 10.24611,3.97443 18.17859,8.0005 6.71769,3.4095 16.09504,7.80616 20.83855,9.77036 4.74352,1.9642 9.83714,4.36803 11.31911,5.34183 5.3118,3.49023 10.56876,10.10171 16.42747,20.66024 7.15164,12.88879 12.5342,19.2957 19.32332,23.00101 4.12119,2.24922 7.4049,2.75396 11.8614,1.82322 8.31365,-1.73632 15.01082,-7.6248 26.769,-23.5368 10.25019,-13.87138 17.66232,-22.17635 25.37383,-28.43028 1.2966,-1.05157 2.35746,-1.68764 2.35746,-1.4135 0,0.27415 -0.49901,0.81757 -1.10896,1.20763 -5.59693,3.57906 -15.63818,14.69228 -26.31245,29.12151 -6.99062,9.44954 -13.65553,16.92982 -17.49525,19.63539 -4.71848,3.32472 -13.53489,5.3886 -17.40984,4.07558 z m 4.82724,-25.4992 c -2.68148,-0.59056 -5.27459,-2.72584 -6.64106,-5.46852 -1.52492,-3.06079 -1.27988,-8.94774 0.52305,-12.56294 1.43694,-2.8814 4.83427,-6.55722 8.27733,-8.95583 4.05567,-2.82542 19.57005,-10.81666 20.99966,-10.81666 3.20078,0 3.27075,3.24056 0.23941,11.08358 -6.76526,17.50323 -16.22072,28.30115 -23.39839,26.72037 z m 7.43717,-2.74693 c 5.1289,-3.63949 10.02433,-11.09 14.63325,-22.27077 1.70791,-4.14329 2.67851,-7.39419 2.73512,-9.16108 l 0.0881,-2.73878 -2.04194,0.11558 c -2.19613,0.12431 -14.69985,6.48477 -20.24571,10.29872 -6.45638,4.44017 -9.74119,9.84114 -9.74119,16.01662 0,3.29679 0.89152,5.35307 3.36448,7.76007 3.14,3.05625 6.88224,3.04945 11.2083,-0.0204 z M -251.48,314.25033 c -14.66939,-1.9895 -18.37327,-3.27073 -22.40604,-7.75063 -2.48947,-2.76548 -3.52417,-4.77284 -8.6206,-16.72442 -6.06865,-14.2315 -10.76734,-21.7482 -20.81165,-33.29332 -10.69528,-12.29339 -12.90991,-16.32845 -14.05647,-25.61105 -1.00412,-8.12931 0.0528,-14.52338 4.12265,-24.94188 3.21732,-8.23602 3.92738,-10.81561 3.93461,-14.29424 0.0152,-7.29754 -7.87086,-13.91106 -25.30112,-21.21841 -7.10357,-2.97806 -13.44243,-4.58422 -22.01465,-5.57815 -3.01534,-0.34963 -6.26151,-0.72869 -7.21371,-0.84235 -1.14664,-0.13688 -0.8543,-0.23292 0.86563,-0.28439 3.0551,-0.0914 12.83249,1.26885 18.08375,2.51588 4.89773,1.16308 14.36422,5.05032 21.23793,8.72097 6.18308,3.30184 10.57014,6.91822 13.27371,10.9419 1.69436,2.52166 1.7794,2.9094 1.51141,6.89067 -0.21843,3.24525 -0.95338,5.92345 -3.18522,11.60713 -4.69809,11.96439 -5.77269,17.89819 -4.75699,26.26775 1.10315,9.0902 3.40901,13.3914 13.24277,24.70231 3.52483,4.05431 7.32641,8.5775 8.44794,10.05154 3.87139,5.08818 9.41552,15.38615 13.55521,25.17816 8.16481,19.31298 9.50682,20.30885 31.24425,23.18553 10.65843,1.41051 19.10259,1.28192 23.82888,-0.36288 4.53446,-1.57801 8.35466,-4.96338 14.46146,-12.81536 3.11161,-4.00084 7.78323,-9.53453 10.3814,-12.29712 7.11495,-7.56523 8.34026,-9.54879 8.34026,-13.50136 l 0,-3.27826 -5.94147,-5.9402 c -3.26781,-3.2671 -8.47059,-8.44433 -11.56174,-11.50495 -4.69194,-4.64557 -6.0141,-6.37854 -8.00447,-10.49153 -2.03043,-4.1958 -2.42333,-5.61935 -2.64807,-9.59461 -0.45902,-8.11938 1.98483,-15.11038 7.9225,-22.66355 3.81843,-4.85733 7.09469,-7.74734 25.65979,-22.63467 20.09911,-16.11744 26.94647,-22.09857 36.63584,-32.00118 l 8.87926,-9.07467 -0.32555,-3.22982 c -1.24338,-12.33599 -18.5143,-30.47914 -32.56201,-34.2065 -4.81081,-1.27649 -14.86571,-1.17144 -24.11361,0.25193 -18.33068,2.82133 -27.84402,0.80961 -36.12428,-7.63893 -8.23379,-8.401125 -11.52478,-21.524211 -8.06146,-32.145818 2.21379,-6.789481 6.00757,-11.778091 17.70834,-23.285565 11.58714,-11.39572 15.93014,-16.66716 18.6313,-22.614263 4.12282,-9.07717 3.59803,-21.2840135 -1.65223,-38.431677 -0.91652,-2.993415 -1.45178,-5.210383 -1.18948,-4.926593 0.7409,0.801588 3.23105,9.3713755 4.52847,15.5846485 2.59653,12.434594 2.19866,20.5569805 -1.38817,28.3388905 -2.78372,6.039511 -4.43137,8.032639 -17.85156,21.594536 -16.31344,16.485706 -19.48638,21.782549 -19.46896,32.501042 0.024,14.76804 8.94654,27.158209 22.14851,30.756249 4.38825,1.19597 13.53577,1.05881 22.83215,-0.34235 9.77957,-1.47398 18.95337,-1.57083 23.94213,-0.25277 14.39313,3.80275 31.92051,22.14315 33.18903,34.72856 l 0.34396,3.41251 -9.4611,9.62447 c -10.71991,10.90505 -17.00453,16.38901 -38.31598,33.43459 -16.4467,13.15458 -22.10208,18.43189 -25.99449,24.25675 -4.00249,5.98958 -5.13775,9.77062 -5.1546,17.16756 -0.0138,6.06626 0.0466,6.36143 2.22858,10.8821 2.35417,4.87748 4.06021,6.79825 19.2854,21.71279 l 6.46107,6.32923 0,3.30269 c 0,4.39381 -0.8856,5.95769 -7.20004,12.71443 -2.92821,3.13331 -7.78804,8.86574 -10.79962,12.73873 -5.83338,7.50187 -9.57931,11.35871 -12.57029,12.94247 -5.25992,2.7852 -14.68809,3.26625 -28.17256,1.43745 z m -67.96539,-7.28566 c -2.50116,-1.11541 -6.53294,-6.06078 -9.72168,-11.92461 -4.53761,-8.3443 -7.75322,-11.16416 -13.52981,-11.86471 -4.76461,-0.57782 -13.19437,2.45377 -19.9193,7.16357 -1.22748,0.85967 -2.34105,1.45113 -2.47461,1.31437 -0.34243,-0.35063 4.61762,-3.53181 8.85332,-5.67816 9.76734,-4.94937 17.08263,-4.62265 22.20342,0.99169 1.40887,1.54465 4.07241,5.43932 5.91897,8.65479 5.79363,10.0886 9.5004,12.78733 14.6601,10.67334 4.52802,-1.85517 7.62885,-6.92238 7.57778,-12.38317 -0.0703,-7.50969 -5.50608,-13.51553 -16.40505,-18.1253 -6.06083,-2.56346 -9.1687,-5.57424 -10.01985,-9.70681 -0.99096,-4.81136 -1.75232,-14.73612 -2.42079,-31.55617 -1.18275,-29.75997 -3.3317,-38.41064 -11.62619,-46.80162 -3.82764,-3.87215 -9.79649,-7.07585 -15.3338,-8.23018 -1.98376,-0.41354 -3.60685,-0.93634 -3.60685,-1.16179 0,-0.52572 3.851,0.36038 7.90128,1.81805 9.55773,3.43978 16.40639,10.74164 19.50967,20.80068 2.00789,6.5084 3.013,15.50268 3.71899,33.2794 0.90731,22.84575 1.68083,30.82916 3.33774,34.4482 1.09622,2.39434 4.13059,4.52089 10.57356,7.41016 2.71311,1.21666 6.34883,3.35105 8.07936,4.74309 7.45306,5.99522 9.05763,16.11032 3.5482,22.36752 -2.17728,2.47281 -5.83179,4.58369 -7.90404,4.56547 -0.63481,-0.005 -1.949,-0.36459 -2.92042,-0.79781 z m 66.68973,-16.03385 c -6.95108,-1.98018 -11.80883,-6.26899 -18.04178,-15.92874 -5.82769,-9.03168 -11.01812,-20.76653 -15.42097,-34.86476 -1.79017,-5.73222 -1.83795,-6.15717 -1.59484,-14.18228 0.20956,-6.91802 0.61386,-9.86991 2.4685,-18.0233 2.06472,-9.07696 2.21829,-10.38287 2.22379,-18.9097 0.005,-8.27447 -0.17012,-9.90157 -1.81615,-16.84145 -5.09172,-21.46729 -4.29942,-25.01262 8.51788,-38.11486 8.03861,-8.21734 12.811,-12.12485 17.75217,-14.53506 4.79506,-2.33892 9.47523,-2.18084 20.91595,0.70646 8.22645,2.07614 9.59404,2.25689 17.02438,2.25002 6.34254,-0.006 9.94026,-0.35988 16.73584,-1.64679 18.68438,-3.53837 26.51523,-2.48522 34.16398,4.59459 3.27183,3.02847 5.41284,6.94681 6.78418,12.41596 0.77471,3.0897 0.77778,3.91905 0.0268,7.23492 -1.78118,7.86432 -6.11906,14.66996 -14.94911,23.45346 -6.806,6.7701 -11.6808,10.7772 -22.12302,18.18517 -16.90966,11.99613 -22.42105,17.0298 -27.86096,25.44598 -6.14525,9.50744 -9.03505,21.36616 -7.6234,31.28366 0.37489,2.63368 2.03898,8.94797 3.69801,14.03176 2.89182,8.8615 3.01747,9.51167 3.04237,15.74344 0.0237,5.92822 -0.10895,6.7602 -1.50724,9.45485 -1.94608,3.75029 -4.06156,5.79839 -7.70036,7.45513 -3.71283,1.69045 -10.31414,2.04551 -14.716,0.79154 z m 12.49696,-0.55878 c 4.09209,-1.24434 7.13541,-3.71983 9.14421,-7.43799 1.637,-3.03 1.72957,-3.5586 1.69979,-9.70475 -0.0305,-6.28495 -0.14095,-6.8393 -3.33673,-16.73982 -2.72979,-8.45687 -3.36016,-11.18325 -3.62071,-15.6596 -0.7219,-12.40214 3.7265,-24.89152 12.61821,-35.42706 3.55361,-4.21059 11.59958,-10.88088 21.49432,-17.81929 10.97088,-7.69301 16.54776,-12.23919 23.58224,-19.22383 9.10311,-9.03861 13.34064,-15.57508 15.08223,-23.26464 0.74736,-3.29979 0.74804,-4.15653 0.006,-7.07503 -1.94305,-7.6386 -5.95455,-13.00593 -11.96908,-16.01444 -6.53526,-3.26898 -13.46405,-3.40893 -28.43233,-0.57431 -6.79558,1.28693 -10.39331,1.64093 -16.73584,1.6468 -7.43034,0.007 -8.79794,-0.17388 -17.02439,-2.25001 -11.45461,-2.89083 -16.16413,-3.05118 -20.80943,-0.70852 -4.83313,2.43737 -10.11775,6.73642 -17.37309,14.13303 -7.11953,7.25816 -10.57021,12.45063 -11.23112,16.90023 -0.54272,3.65388 0.43784,11.10411 2.7287,20.73231 1.73178,7.27845 1.8976,8.7802 1.8922,17.13692 -0.006,8.52683 -0.15908,9.83274 -2.22379,18.9097 -1.85557,8.15744 -2.26045,11.11513 -2.47839,18.10466 l -0.26049,8.35434 2.97056,8.98989 c 6.66175,20.16058 16.22972,37.3749 23.91442,43.02589 2.52444,1.85636 7.00303,3.91058 9.62092,4.41287 3.09043,0.59296 7.99211,0.38883 10.74193,-0.44735 z m -21.31375,-66.48753 c -3.79728,-3.05853 -5.29065,-10.11866 -6.26601,-29.62353 -1.0203,-20.40354 0.0813,-29.07242 4.99892,-39.33784 4.49066,-9.3742 11.57087,-15.42176 20.60999,-17.60402 1.98703,-0.47972 4.26202,-0.85744 5.05553,-0.83937 0.79351,0.018 -0.80894,0.51911 -3.56101,1.11344 -6.65312,1.43679 -11.19366,3.99936 -15.63945,8.82652 -9.40005,10.20639 -12.16194,22.34319 -10.88688,47.84127 0.97025,19.40277 2.1289,25.18888 5.73997,28.66479 1.48824,1.43255 2.07544,1.63837 3.75408,1.3159 3.34532,-0.64262 6.24393,-3.3819 12.31961,-11.6424 8.7165,-11.85097 15.4895,-18.07823 33.37744,-30.68798 7.95558,-5.60815 12.84221,-9.31574 20.02504,-15.19344 4.18148,-3.42173 9.07526,-9.4986 11.06691,-13.74243 1.56014,-3.32437 1.80262,-4.48274 1.80262,-8.61175 0,-4.05815 -0.20552,-5.07784 -1.37597,-6.82695 -4.35186,-6.50331 -12.52698,-7.59749 -31.23006,-4.1799 -10.43774,1.90726 -21.9525,3.36031 -23.21479,2.92945 -0.39658,-0.13536 2.39219,-0.56434 6.19727,-0.95329 3.80507,-0.38894 11.46296,-1.54366 17.01752,-2.56602 19.82342,-3.64866 28.62203,-2.086 32.32211,5.7405 1.03123,2.18131 1.23387,3.46369 1.05301,6.66401 -0.60608,10.72511 -8.71207,19.87635 -32.36851,36.54228 -18.91454,13.32529 -25.86271,19.64186 -34.03965,30.94542 -5.64036,7.79706 -7.93426,10.20426 -10.95213,11.49314 -2.83639,1.21137 -4.03791,1.15595 -5.80556,-0.2678 z m 21.31383,-50.1254 c -2.44065,-2.76151 0.38162,-11.23874 5.04407,-15.15084 5.10784,-4.28579 12.76232,-6.8147 20.62671,-6.8147 4.68512,0 5.10908,0.10198 6.171,1.48435 1.55017,2.01795 1.09387,3.30315 -2.63827,7.43092 -4.70935,5.20855 -12.48832,9.8729 -21.54018,12.91569 -4.46053,1.49941 -6.42656,1.53393 -7.66333,0.13458 z m 9.80805,-1.56574 c 6.99628,-2.56049 13.87828,-6.70428 18.17738,-10.94495 3.74511,-3.69422 4.63564,-5.93142 3.06736,-7.70587 -2.11171,-2.38937 -13.15571,-1.26366 -20.27845,2.06696 -7.81143,3.65265 -13.63103,13.67344 -10.19724,17.55868 1.34588,1.5228 2.8366,1.36538 9.23095,-0.97482 z m 96.28851,109.37493 c -13.0449,-3.54538 -21.54758,-9.73285 -28.54541,-20.77273 -8.0265,-12.66271 -16.4698,-30.35999 -17.09869,-35.83906 -0.3414,-2.97438 -0.18203,-3.78777 1.43574,-7.32771 4.99396,-10.92761 20.37097,-20.15507 30.04644,-18.03031 6.2707,1.37705 14.0932,6.91797 24.1178,17.08335 12.60499,12.78202 22.14224,26.98876 25.813978,38.45267 1.417393,4.42536 0.99313,10.56072 -1.008619,14.58584 -2.077629,4.17772 -8.157039,9.8512 -12.360019,11.53473 -5.16928,2.0706 -15.40835,2.21377 -22.40122,0.31322 z m 19.9494,-0.11817 c 5.88509,-1.76213 11.67893,-6.6381 14.43815,-12.15085 1.793734,-3.58377 2.155646,-9.94817 0.805474,-14.16477 -3.731294,-11.65286 -13.920674,-26.46042 -27.261504,-39.61733 -9.34974,-9.22085 -16.32487,-14.06098 -22.0868,-15.3263 -10.1399,-2.22675 -26.08482,7.93018 -30.33382,19.32266 -0.86807,2.32751 -0.93094,3.29734 -0.41399,6.38755 1.1793,7.04973 15.34419,34.14057 21.62213,41.35306 7.89088,9.06554 21.45427,15.04132 34.28535,15.10547 3.68767,0.0185 6.95568,-0.31383 8.94501,-0.90949 z M -136.759,268.86364 c -8.68265,-2.87773 -14.26329,-7.75331 -17.95327,-15.68499 -2.50543,-5.38547 -5.12701,-14.79097 -5.12919,-18.40214 -0.003,-5.93288 3.69987,-11.29547 8.76658,-12.694 7.3646,-2.03279 18.8837,3.29591 28.12476,13.01045 12.92923,13.59169 14.0607,27.94857 2.63841,33.47788 -3.67946,1.78115 -11.53475,1.92099 -16.44729,0.2928 z m 16.77306,-1.10043 c 8.35509,-4.3383 9.24059,-14.48226 2.2041,-25.2493 -6.66749,-10.20241 -18.92989,-19.09979 -27.79012,-20.16404 -7.9431,-0.95408 -13.69762,4.31512 -13.6924,12.53766 0.002,3.3612 2.61804,12.87315 4.90447,17.83357 3.54125,7.68277 10.35819,13.56192 18.24281,15.73317 1.71007,0.47092 5.33497,0.87372 8.05534,0.8951 4.29634,0.0339 5.35727,-0.17459 8.0758,-1.58616 z m 67.846913,6.36031 c -1.468392,-1.38595 -4.784309,-5.7145 -7.368722,-9.61899 -3.645278,-5.50727 -7.198158,-9.72178 -15.844845,-18.79563 -6.130266,-6.4331 -12.731934,-13.88685 -14.670363,-16.56386 -6.477431,-8.94547 -12.275643,-19.9711 -20.478573,-38.94115 -2.45944,-5.68768 -6.55211,-14.59592 -9.09484,-19.79609 -9.88829,-20.22271 -9.71012,-21.18028 6.20983,-33.37637 4.12625,-3.16109 10.9594,-8.68719 15.184795,-12.28025 12.132436,-10.31683 18.281556,-12.99362 28.386085,-12.35681 3.015336,0.19003 8.079373,1.04042 11.253407,1.88973 3.174045,0.84932 8.722429,2.32422 12.329752,3.27757 3.607313,0.95335 9.640035,2.03291 13.406026,2.39901 21.024696,2.0439 45.973368,-5.75066 69.878396,-21.831673 9.406506,-6.3278 12.749257,-8.274943 16.995269,-9.89973 2.18038,-0.834344 5.33127,-2.301251 7.00198,-3.259799 5.65604,-3.245054 14.2627,-4.420716 20.9119,-2.856562 6.47254,1.522605 18.27624,8.499202 30.29764,17.907464 3.17403,2.48408 8.29546,5.84987 11.38094,7.47952 12.46392,6.58301 23.17646,18.23539 30.52694,33.20511 4.34107,8.84083 4.80405,13.90456 1.87851,20.54341 -3.59535,8.15889 -7.80081,10.16263 -24.16507,11.51373 -13.32979,1.10056 -15.71621,1.91297 -23.68833,8.06426 -1.60205,1.23613 -7.96456,4.94586 -14.13891,8.24384 -40.89149,21.84187 -42.301594,22.78897 -48.719132,32.72177 -3.733618,5.77875 -5.558262,10.12683 -9.502457,22.64418 -3.517845,11.16426 -5.942739,15.44267 -10.750553,18.96798 -8.379262,6.14405 -34.250083,11.11961 -66.688785,12.82579 l -7.861096,0.41347 -2.669794,-2.51992 z m 27.625543,0.23945 c 22.350334,-2.08794 41.527397,-6.28332 48.078937,-10.51824 3.025213,-1.9555 6.728586,-6.38063 8.404785,-10.0428 0.762234,-1.66535 2.589035,-6.93808 4.059545,-11.71719 4.351406,-14.14198 7.411131,-20.10576 13.823325,-26.94342 4.990682,-5.32183 8.352172,-7.43164 32.692932,-20.51946 11.89832,-6.39761 23.32131,-12.87599 25.38443,-14.3964 8.6142,-6.34818 10.38009,-6.94377 23.87494,-8.05239 16.06449,-1.31973 19.77672,-2.96681 23.4915,-10.42288 3.90423,-7.8363 2.1113,-15.82777 -6.59445,-29.39288 -7.44695,-11.60369 -15.08368,-18.94389 -25.30528,-24.32266 -3.07856,-1.61999 -8.30375,-5.05151 -11.61155,-7.62562 C 99.07396,90.516928 88.05142,84.063952 81.35372,82.593133 c -1.7307,-0.380061 -5.41956,-0.552767 -8.39857,-0.393215 -4.87873,0.261299 -5.82315,0.527046 -11.57073,3.255816 -3.44212,1.634212 -7.33897,3.389415 -8.65966,3.900449 -2.548279,0.986063 -5.521675,2.792504 -16.642968,10.11122 -17.975463,11.829307 -37.727341,19.407167 -54.892826,21.059747 -11.934477,1.14898 -19.476594,0.0354 -41.193958,-6.08211 -6.479401,-1.82518 -17.543619,-1.82132 -22.013877,0.008 -4.658955,1.9062 -9.634345,5.33825 -17.185676,11.85477 -3.626445,3.12949 -10.235455,8.48212 -14.686695,11.89473 -9.30766,7.13586 -11.33237,9.40832 -11.74817,13.18574 -0.39658,3.60272 0.8072,7.05816 6.59202,18.92223 2.66785,5.47149 6.93574,14.77861 9.48418,20.68248 8.2861,19.19599 15.031792,31.53335 22.347397,40.87166 1.782285,2.27507 7.929217,9.05688 13.659844,15.07067 8.01728,8.41345 11.523416,12.60224 15.20851,18.16966 2.634056,3.97951 5.740851,8.05771 6.903981,9.06269 l 2.114792,1.82723 7.790818,-0.38451 c 4.284958,-0.21148 11.945927,-0.77267 17.024384,-1.2471 z m 0.794528,-14.4395 c -11.800848,-1.14583 -20.19827,-5.28393 -37.151684,-18.30769 -16.019496,-12.3063 -24.595232,-24.03184 -30.277185,-41.39778 -2.431099,-7.43025 -6.673916,-24.48604 -7.852704,-31.56722 -1.300051,-7.80967 -0.909283,-15.71006 1.044427,-21.11549 3.444844,-9.53106 11.136999,-19.15163 18.203122,-22.76663 7.31124,-3.7404 13.528095,-3.92558 26.961704,-0.8031 11.819227,2.74722 16.782354,3.06869 44.806913,2.90215 25.325697,-0.15049 25.70859,-0.13495 35.860912,1.4547 15.522204,2.43048 19.306573,2.12452 27.249471,-2.20309 6.63449,-3.61473 9.13008,-4.25192 21.06407,-5.37814 15.01492,-1.41699 24.31625,-0.63038 36.34284,3.07349 16.22627,4.99726 22.8408,13.51977 18.27872,23.55124 -2.71076,5.96062 -8.68646,9.54084 -20.1968,12.10051 -8.96484,1.99361 -20.29413,3.919 -26.34539,4.47735 -5.80513,0.53563 -10.37589,2.06261 -15.58165,5.20546 -15.06516,9.09524 -27.867572,26.769 -39.222394,54.14664 -8.320493,20.06155 -13.883287,27.47809 -24.383991,32.50973 -6.807832,3.26212 -19.267065,5.04354 -28.800381,4.11787 z m 19.527226,-1.77029 c 7.926733,-1.59708 13.327653,-4.48179 18.680136,-9.97732 5.388024,-5.53202 8.088231,-10.14744 13.794769,-23.57916 10.01898,-23.58215 17.723337,-36.17012 28.679405,-46.85868 9.52018,-9.28773 17.6149,-13.51973 27.59543,-14.42714 11.6372,-1.05804 32.21341,-5.38 36.73844,-7.71679 6.85566,-3.54034 10.29503,-8.24126 10.29503,-14.07122 0,-7.48757 -6.4134,-13.25343 -19.04423,-17.1214 -12.05798,-3.69255 -21.40707,-4.49161 -36.06861,-3.08275 -11.81694,1.13551 -15.41379,1.99575 -19.90987,4.76177 -7.673411,4.72073 -13.08047,5.26571 -28.566352,2.87928 l -10.964852,-1.68972 -25.26872,0.17505 c -27.779064,0.19246 -32.637076,-0.1247 -44.848668,-2.92793 -10.127331,-2.32478 -15.860502,-2.7207 -20.77552,-1.43467 -7.242605,1.89504 -14.302859,7.71177 -19.274557,15.87968 -7.593721,12.47562 -7.934311,21.15224 -1.789707,45.59287 8.317662,33.08409 16.570094,44.84502 45.302374,64.56253 14.493504,9.94617 27.784617,12.58991 45.425502,9.0356 z m -19.456107,-12.10166 c -14.585021,-2.9955 -32.772318,-13.87341 -41.69508,-24.93804 -3.363809,-4.17128 -7.361468,-11.93605 -9.339168,-18.13975 -3.212137,-10.07594 -6.409311,-34.55535 -5.951269,-45.56634 0.553012,-13.29392 5.500967,-21.49099 14.123951,-23.39856 4.379266,-0.96878 17.612264,-0.83674 29.588318,0.29524 5.237164,0.49502 14.066757,1.18407 19.621327,1.53124 10.844475,0.67779 18.582373,1.75484 23.661008,3.29338 9.809788,2.97182 20.100588,11.36953 24.108649,19.67363 l 2.149303,4.45305 -0.02722,8.89457 c -0.02445,7.98799 -0.189685,9.43665 -1.620914,14.21292 -2.780274,9.27825 -12.501137,35.25486 -15.206521,40.6357 -4.999835,9.94435 -13.003012,16.81596 -22.158927,19.02592 -4.436946,1.07094 -12.112137,1.08297 -17.25343,0.027 z m 17.25923,-0.61935 c 9.47527,-2.28701 17.04112,-9.05874 22.433132,-20.07854 2.077709,-4.24628 12.092165,-31.45792 14.349414,-38.99077 1.430161,-4.77267 1.596469,-6.22781 1.620924,-14.18227 0.02712,-8.82938 0.01979,-8.87999 -1.879244,-12.98669 -1.450984,-3.13774 -3.043365,-5.25841 -6.66487,-8.87603 -9.437464,-9.42729 -18.547349,-12.53022 -40.770507,-13.88688 -5.55457,-0.3391 -12.696147,-0.87495 -15.870191,-1.1908 -18.96215,-1.88692 -31.516503,-1.80625 -36.283186,0.23312 -6.505687,2.78339 -10.723851,12.21252 -10.741754,24.01169 -0.01009,6.61821 2.368936,27.79352 3.960624,35.25348 3.809578,17.85493 11.057547,28.76205 25.711531,38.69204 15.600558,10.57142 31.803999,14.97772 44.134127,12.00165 z m -16.642491,-13.29283 c -13.074022,-2.78847 -25.580078,-10.75097 -31.958312,-20.3476 -2.387959,-3.59289 -5.564893,-10.52908 -5.557203,-12.13299 0.002,-0.48752 0.73668,1.01414 1.63187,3.33702 4.932229,12.79829 15.308994,21.98127 30.650123,27.12398 4.207534,1.41046 5.890463,1.65079 11.830509,1.68946 9.342869,0.0608 12.19259,-1.05953 18.002778,-7.07768 3.348409,-3.46826 4.713814,-5.48252 7.051693,-10.4027 7.956305,-16.74443 9.075582,-36.16282 2.839329,-49.25951 -5.006149,-10.51341 -13.019282,-16.35749 -25.844426,-18.84868 -7.59464,-1.47521 -26.04865,-2.41268 -32.002266,-1.62572 -8.468798,1.11942 -13.369941,4.0591 -15.837283,9.49916 -1.365741,3.01124 -1.522677,4.1272 -1.721339,12.24055 -0.223919,9.14527 0.768212,20.07435 2.536818,27.94488 0.467196,2.07908 0.739462,3.89277 0.605041,4.03041 -0.440335,0.45089 -2.007351,-7.65682 -2.982083,-15.4293 -1.257151,-10.02445 -0.960589,-24.22577 0.587484,-28.13241 3.360929,-8.48143 12.088028,-11.76094 29.162768,-10.9589 23.136807,1.0868 31.654981,3.62694 39.539088,11.79067 6.606508,6.84082 9.818507,14.85015 10.449101,26.05546 0.594194,10.55876 -2.120136,23.4496 -7.057027,33.51513 -3.542845,7.22328 -9.791488,13.85199 -14.941916,15.85077 -3.888169,1.50891 -12.530689,2.08798 -16.984747,1.138 z m 0.508952,-14.82738 c -10.603821,-1.47072 -19.441123,-8.93658 -23.535614,-19.88318 -2.540184,-6.79113 -3.218511,-10.83237 -3.246055,-19.33892 -0.02999,-9.26982 0.849486,-12.4544 4.628126,-16.75786 3.305307,-3.7644 6.084878,-4.89239 12.951052,-5.25572 6.7004,-0.35457 10.824563,0.45327 16.093427,3.15234 5.68042,2.90991 9.943713,7.52214 13.064532,14.13383 10.878807,23.04761 0.123702,46.73444 -19.955468,43.94951 z m 9.26207,-1.21866 c 3.518131,-1.03524 7.454103,-4.15026 9.847811,-7.79384 3.392876,-5.16443 4.289669,-8.80232 4.242322,-17.20917 -0.03385,-6.00308 -0.273512,-7.81651 -1.562146,-11.81856 -2.970642,-9.22573 -8.172474,-15.99535 -14.973388,-19.48624 -5.205929,-2.67218 -9.33892,-3.47403 -16.01916,-3.10794 -8.540245,0.46802 -12.378642,2.82602 -15.350501,9.43012 -1.583078,3.51792 -1.66835,4.12063 -1.653505,11.68673 0.01712,8.743 0.682752,12.78951 3.207585,19.50064 5.342319,14.20009 19.61808,22.51848 32.260982,18.79826 z m 248.208296,57.47955 c -1.11321,-0.72171 -0.62311,-5.54569 2.20237,-21.67791 3.00304,-17.14516 3.36497,-19.76127 4.07913,-29.48546 1.06353,-14.48224 3.0068,-20.26291 7.9341,-23.60182 2.48938,-1.68689 6.64056,-2.66662 8.81205,-2.07977 1.01424,0.27409 0.54671,0.40614 -1.57421,0.44459 -3.90197,0.0707 -6.56148,1.40367 -9.40844,4.71552 -2.84102,3.30497 -3.89277,6.75113 -4.6397,15.20312 -1.18575,13.41682 -2.37438,22.39753 -4.62554,34.94467 -1.27493,7.10628 -2.36963,14.78194 -2.43267,17.05701 -0.10748,3.87406 -0.0327,4.14841 1.17595,4.32428 1.25949,0.18327 13.32111,-5.55844 19.77334,-9.4127 1.74572,-1.04282 2.85042,-1.49513 2.45484,-1.00513 -1.11222,1.37777 -20.02868,11.11759 -21.5725,11.10739 -0.75316,-0.005 -1.73355,-0.24518 -2.17872,-0.53379 z m -100.1827,-4.73906 c -6.51242,-1.63064 -14.14244,-9.12815 -14.13674,-13.89123 0.008,-6.95032 10.3205,-10.55685 18.38073,-6.42837 4.63436,2.37374 6.62419,5.47085 6.87841,10.70603 0.23772,4.89529 -1.01197,7.32025 -4.64198,9.00756 -2.58438,1.2013 -3.69004,1.30469 -6.48042,0.60601 z m 6.32275,-1.20575 c 3.04561,-1.5097 4.35356,-3.81011 4.35356,-7.65705 0,-7.49813 -5.41602,-12.50953 -13.57162,-12.55771 -6.25056,-0.0369 -10.66649,3.12391 -10.66649,7.63484 0,4.47329 7.38146,11.656 13.5618,13.19666 2.84207,0.70848 3.84703,0.61045 6.32275,-0.61674 z m -506.0606,-5.86678 c 0.30153,-0.29473 1.70691,-1.51738 3.12307,-2.71698 8.6271,-7.3079 13.25268,-19.3974 12.5369,-32.76668 -0.37908,-7.0806 -1.46795,-11.78427 -3.88518,-16.78318 -2.69954,-5.58274 -5.65528,-9.11331 -9.05569,-10.81685 -3.19433,-1.60029 -4.04001,-2.33489 -1.58985,-1.38101 4.83177,1.88106 8.14329,5.43316 11.18943,12.00231 2.47747,5.34281 3.54249,9.95761 3.91839,16.97873 0.54568,10.19229 -1.44085,18.0423 -6.61951,26.15779 -2.17735,3.41213 -8.58121,9.86173 -9.79179,9.86173 -0.20571,0 -0.1273,-0.24113 0.17423,-0.53586 z M 239.39473,145.32347 c -2.86785,-0.57107 -3.92563,-1.588 -3.92563,-3.77387 0,-3.04927 5.02389,-7.34062 13.59812,-11.61537 7.65748,-3.81766 10.71129,-5.14831 9.77434,-4.25901 -0.3174,0.30126 -3.04421,1.69631 -6.05951,3.10009 -7.3677,3.43 -11.43089,5.92671 -14.32367,8.80136 -2.71375,2.69667 -3.06826,4.56219 -1.19665,6.29551 1.10134,1.01991 2.1998,1.12572 11.68624,1.12572 5.80971,0 9.31472,0.17778 7.87372,0.39939 -3.37833,0.51956 -14.68758,0.47166 -17.42696,-0.0738 z m -600.06768,-2.32422 c 6.08728,-2.00734 12.92982,-5.63919 18.03512,-9.5726 4.60817,-3.5504 9.17385,-8.79241 17.45132,-20.03652 9.08586,-12.34223 13.94593,-18.050708 21.23586,-24.943 6.74343,-6.375612 9.73957,-8.622452 22.3401,-16.753081 3.96754,-2.560102 12.4076,-8.675788 18.75568,-13.590408 6.34808,-4.914618 16.59374,-12.341539 22.76814,-16.504261 12.28975,-8.285639 18.345,-13.824966 21.94215,-20.072627 5.01804,-8.715533 5.33849,-19.7813365 0.95067,-32.829344 -1.03831,-3.0876 -2.06691,-6.145653 -2.28579,-6.795673 -0.21887,-0.650021 0.23989,0.147731 1.01946,1.772784 2.45657,5.120743 4.40966,13.1328325 4.75365,19.5006285 0.86177,15.9524495 -5.20979,24.8711245 -26.93001,39.5582405 -6.18938,4.185224 -16.4473,11.631717 -22.79537,16.547766 -6.34807,4.916043 -15.43737,11.428248 -20.19842,14.471564 -4.76106,3.043314 -10.47433,6.929824 -12.69616,8.636687 -6.72944,5.16972 -16.89426,15.962532 -23.90746,25.384464 -10.45411,14.04466 -14.83102,19.45986 -18.67516,23.1053 -4.17211,3.95646 -9.77833,7.7963 -14.51324,9.94049 -3.60338,1.63177 -10.42198,3.90951 -11.49529,3.83997 -0.36332,-0.0235 1.54682,-0.7707 4.24475,-1.66038 z m 539.29787,-5.64163 c -9.2691,-2.68689 -13.94888,-6.51956 -27.10346,-22.19761 -4.53549,-5.40553 -11.45408,-12.86965 -15.37465,-16.586935 C 125.1318,88.129212 124.03198,86.897965 118.71471,79.057786 113.47641,71.334037 101.028,56.635014 96.84025,53.228515 91.6457,49.003035 86.91889,47.243323 75.03589,45.111118 70.43354,44.285308 65.3873,43.220686 63.82202,42.74529 59.26268,41.360568 56.0908,41.629258 51.943138,43.751535 45.466712,47.0654 38.637978,54.901125 26.279041,73.200129 11.646841,94.865012 4.372971,102.53391 -7.220882,108.51939 c -6.638871,3.4274 -11.3464,4.54878 -19.023887,4.53174 -7.915668,-0.0176 -9.960835,-0.39811 -24.199957,-4.50277 -16.632723,-4.79465 -22.715206,-5.5097 -31.343623,-3.68474 -5.891037,1.24598 -10.139248,3.29826 -19.003181,9.18025 -10.04332,6.66459 -15.27058,8.93871 -21.30421,9.26838 -8.06792,0.44081 -12.41356,-1.38127 -26.98473,-11.31451 -10.16811,-6.93165 -15.32655,-9.40131 -23.45281,-11.22829 -4.86716,-1.094257 -7.15351,-1.220842 -20.20421,-1.118619 -15.08833,0.118184 -19.81669,-0.312304 -23.97888,-2.183148 -8.26493,-3.714954 -12.41014,-14.133197 -9.76334,-24.538465 1.77692,-6.985514 4.95403,-11.561555 18.97613,-27.331554 5.92068,-6.658708 10.1788,-13.018237 11.69198,-17.462053 0.83388,-2.448879 1.04277,-4.763823 0.99928,-11.073652 -0.0603,-8.7359625 -1.05533,-14.7162905 -4.59639,-27.623004 -1.09189,-3.979792 -1.96445,-7.56968 -1.93903,-7.977531 0.0873,-1.400303 4.54593,15.2151955 5.74746,21.4182605 0.66101,3.41261 1.34958,8.9968795 1.53015,12.4094905 0.70617,13.345825 -1.8597,18.399522 -19.10951,37.637877 -10.09863,11.262765 -13.28358,17.462358 -13.29904,25.886897 -0.0182,9.889444 3.78139,15.825578 12.14788,18.978898 2.47535,0.93297 4.97427,1.079236 19.57347,1.145716 25.46393,0.115954 29.49667,1.253127 47.03346,13.262827 13.52394,9.26156 17.66842,10.96132 25.62813,10.51073 6.04857,-0.3424 10.45174,-2.23865 20.17962,-8.69051 8.987396,-5.96074 14.242741,-8.50855 20.101356,-9.74521 8.6617,-1.82834 14.726765,-1.11665 31.370038,3.68103 14.410884,4.15416 16.317078,4.50176 24.488503,4.46546 8.62043,-0.0383 13.566752,-1.42987 21.203405,-5.9653 9.988091,-5.93194 16.669569,-13.084577 28.099281,-30.080761 9.86618,-14.671202 14.041618,-20.159986 19.949045,-26.223865 7.98963,-8.20122 13.056032,-10.21399 20.289772,-8.06069 1.72709,0.514113 6.82544,1.596669 11.32968,2.405691 4.50424,0.809022 9.2891,1.774126 10.63302,2.14468 3.0175,0.832003 8.73719,3.752109 11.35808,5.798711 3.46009,2.701925 17.26266,18.948731 22.10635,26.02107 6.25513,9.133183 6.44437,9.352557 13.89873,16.111838 7.57104,6.865056 9.37629,8.800946 20.18959,21.650736 4.46049,5.30058 9.82088,11.09589 11.91181,12.87846 4.55567,3.88379 10.36291,6.9808 14.8971,7.94465 4.44225,0.94431 13.75826,0.40022 19.20228,-1.12144 12.70552,-3.55137 38.68425,-16.94305 49.1489,-25.33561 3.30093,-2.64727 7.18361,-7.57147 9.57085,-12.138014 0.71407,-1.366143 1.29839,-2.07683 1.29839,-1.579295 0,1.660257 -5.77607,9.939949 -8.90469,12.764449 -9.06453,8.18329 -37.08381,22.95015 -50.92323,26.83773 -5.81159,1.63252 -16.51288,2.08882 -20.67722,0.88169 z m -543.91465,-12.39487 c 0,-0.13148 1.44948,-1.07671 3.22109,-2.1005 4.5179,-2.61085 8.05388,-6.13457 9.72456,-9.69085 1.97946,-4.21356 2.62649,-10.45743 2.51933,-24.311678 -0.12774,-16.515735 1.55151,-25.195051 6.53561,-33.77973 2.12623,-3.662241 9.36654,-11.395398 20.88122,-22.30259 8.46779,-8.021055 13.67754,-14.140027 19.06399,-22.391126 4.34715,-6.6590725 9.82296,-17.4077575 12.49953,-24.535856 1.01512,-2.703379 1.96023,-4.797928 2.10025,-4.654554 0.74505,0.762922 -7.33713,18.46015048 -11.98844,26.2505375 -5.8992,9.8804935 -13.9327,19.1123075 -27.83616,31.9883365 -8.40064,7.779851 -13.64678,14.093647 -16.02612,19.287651 -3.60112,7.86104 -5.37838,20.370186 -4.7425,33.379811 0.41569,8.504908 -0.4394,16.666088 -2.16782,20.690108 -1.43503,3.34098 -5.59498,7.73731 -9.82035,10.37837 -3.09503,1.93456 -3.96419,2.32747 -3.96419,1.79207 z m 547.66579,-1.74827 C 172.65557,120.31335 167.81051,116.07376 150.54382,95.359933 134.75917,76.424057 132.50882,73.158085 122.69059,54.936001 109.76293,30.943015 107.42177,28.485279 89.87411,20.48544 80.96597,16.42429 79.96094,16.078835 70.13056,13.699146 54.28171,9.8625305 54.86876,9.9560705 50.797782,10.618699 37.737503,12.744511 30.781148,10.286714 28.603193,2.7769745 27.657935,-0.48234052 27.512905,-8.5869505 28.277227,-15.439088 c 0.250819,-2.248633 0.308013,-0.04377 0.137944,5.318353 -0.422472,13.3201315 0.964083,17.2008835 7.089519,19.8425105 2.66918,1.1510975 9.457555,1.2911205 15.253336,0.3146255 2.041248,-0.3439175 4.378494,-0.4802775 5.193874,-0.3030205 0.81538,0.177257 4.59884,1.0785015 8.40769,2.0027645 3.80884,0.924264 8.87288,2.135496 11.2534,2.691627 8.1309,1.899515 25.0541,10.10708 30.9774,15.023694 4.38538,3.640074 7.59385,8.512451 16.78001,25.482106 10.16206,18.772446 12.32542,21.861114 30.17796,43.08554 14.21959,16.905288 18.64165,20.903708 26.25341,23.738068 4.72797,1.76056 13.55586,2.13464 19.80025,0.83904 16.15788,-3.35246 33.6651,-12.54292 42.4158,-22.26627 7.08592,-7.873509 9.25445,-13.300799 13.31873,-33.334565 2.37606,-11.712202 4.17691,-19.291718 3.58023,-15.068668 -0.56047,3.966145 -5.80625,28.477826 -6.82218,31.877 -3.39732,11.368208 -11.68395,21.069573 -24.41629,28.584893 -5.4556,3.22019 -14.47272,6.99517 -22.50688,9.42245 -4.70273,1.4208 -7.10621,1.78379 -12.98471,1.961 -4.83783,0.14587 -8.06899,-0.0378 -9.81066,-0.55758 z m 5.35307,-12.45815 c -8.87361,-2.07072 -16.28525,-8.15226 -25.60531,-21.010215 -2.7093,-3.737614 -7.96087,-10.963339 -11.67029,-16.057157 -13.28501,-18.243081 -18.5779,-29.182241 -20.96071,-43.320837 -1.82111,-10.80565 -1.13875,-15.213433 2.82332,-18.237444 1.50005,-1.144896 1.86211,-1.173548 6.3792,-0.504792 5.62605,0.832937 11.55852,2.39647 24.7513,6.523338 18.17537,5.685498 25.13284,6.429074 39.66761,4.239486 18.82481,-2.835859 26.84323,-7.037035 30.01887,-15.7281235 1.37439,-3.761524 2.32173,-11.033225 2.37655,-18.2431385 0.0228,-2.93362 0.23031,-5.827906 0.46219,-6.431745 0.5473,-1.424889 0.20814,8.9877275 -0.52137,16.0080965 -1.6716,16.0866355 -8.54543,21.4106655 -32.2434,24.9733065 -15.85107,2.382995 -20.98294,1.721823 -45.18388,-5.821372 -9.71561,-3.02826 -19.729,-5.402127 -22.78712,-5.402127 -4.67976,0 -6.88311,4.947256 -5.91372,13.278237 0.71217,6.120394 1.4431,9.558082 3.27049,15.381776 3.94183,12.562163 7.64638,18.560704 31.54519,51.079103 6.40778,8.718908 11.08697,13.197828 16.65767,15.944668 5.8108,2.86529 11.0551,3.87339 17.70437,3.40328 8.90153,-0.62936 17.89559,-4.01673 26.80255,-10.09443 5.87434,-4.0084 8.43103,-6.625715 11.6707,-11.947265 6.04288,-9.926504 8.20854,-20.178542 9.40963,-44.544323 0.69586,-14.11939 1.28086,-16.058031 6.44332,-21.352953 2.10231,-2.156315 4.44571,-4.236639 5.20738,-4.622943 0.76177,-0.386304 0.21635,0.308484 -1.21198,1.543973 -8.7309,7.552213 -9.16132,8.849262 -10.36202,31.227596 -1.12786,21.017092 -4.19166,32.027157 -11.72423,42.130846 -4.49689,6.031771 -17.11353,13.836689 -26.96704,16.682389 -5.61653,1.62205 -15.12196,2.05027 -20.03927,0.90277 z m -316.96833,-3.9121 c -2.37089,-0.63557 -8.16891,-3.02246 -12.88449,-5.30418 -14.96816,-7.242661 -28.18137,-11.254748 -44.63414,-13.552827 -4.80498,-0.671154 -9.99886,-1.613052 -11.54195,-2.093116 -9.12954,-2.840225 -11.78881,-8.176142 -8.69936,-17.455569 1.79517,-5.391978 4.31084,-9.409804 10.96061,-17.505419 11.03387,-13.432943 13.6974,-18.976094 13.67878,-28.46732 -0.0124,-6.324521 -0.68865,-9.625711 -5.4444,-26.5774035 -2.07853,-7.4088645 -3.76557,-13.8526785 -3.74897,-14.3195885 0.0434,-1.223236 7.87588,26.7062755 8.91081,31.774938 1.23873,6.06673 1.12526,13.394488 -0.27851,17.985975 -1.66305,5.439583 -3.80851,8.902584 -10.99513,17.747312 -10.21234,12.568544 -13.13843,17.919374 -13.67087,24.999432 -0.22852,3.038701 -0.0685,3.85427 1.10089,5.609812 2.96024,4.444115 6.65056,5.885535 19.7281,7.705667 16.53378,2.30117 29.40846,6.187128 44.35192,13.386707 9.25601,4.45942 16.05615,6.69531 20.3629,6.69531 3.95259,0 10.85066,-2.11527 20.18586,-6.18989 11.585166,-5.056715 17.026683,-6.389162 25.981967,-6.362165 7.970269,0.02402 12.300823,0.841752 24.336585,4.595358 10.414779,3.248067 15.828218,4.411127 20.531461,4.411127 11.949164,0 22.280571,-7.165668 28.541883,-19.796094 C 4.003943,71.082503 10.043503,45.865816 8.125265,39.914206 6.670996,35.402116 3.879459,34.373123 -8.931839,33.626759 -27.553444,32.541898 -44.239847,29.065191 -57.367175,23.53498 -72.430902,17.189021 -93.991984,5.2548135 -103.10878,-1.7832985 c -4.85658,-3.749258 -14.60313,-13.7151495 -15.7063,-16.0597705 -0.43158,-0.917249 -0.10897,-0.688936 0.89189,0.631197 3.3855,4.465475 12.87696,13.4774625 17.8099,16.91022348 10.727143,7.46485502 31.937496,18.87343452 44.725082,24.05662452 12.617604,5.114298 28.002775,8.18566 46.456369,9.274145 5.078457,0.299553 10.177361,0.822253 11.330901,1.161556 4.420715,1.300318 6.851932,4.708098 6.843104,9.591798 -0.01029,5.70186 -4.78327,25.282021 -8.440117,34.62396 -5.553392,14.186958 -13.737188,22.604345 -24.503596,25.202985 -7.396771,1.78532 -13.211244,1.05849 -27.733806,-3.46686 -11.831618,-3.686812 -16.987251,-4.656224 -24.728386,-4.649657 -8.635305,0.0071 -14.061323,1.35528 -25.597111,6.358967 -9.73326,4.22182 -16.40369,6.23103 -20.51874,6.18048 -1.45691,-0.0179 -4.58873,-0.55255 -6.95961,-1.18812 z M 194.78368,96.018227 c -4.21085,-1.048539 -8.71437,-3.76754 -11.50561,-6.946468 -3.48907,-3.973719 -6.15947,-9.539907 -9.75583,-20.334892 -1.72662,-5.182953 -3.63535,-10.753136 -4.24164,-12.378188 -0.60618,-1.625052 -1.00711,-3.543879 -0.89102,-4.264061 0.39182,-2.428892 3.22047,-4.119803 9.20892,-5.50508 3.10379,-0.717966 9.58867,-2.470446 14.41097,-3.8944 15.56722,-4.596835 21.13872,-5.292455 27.32422,-3.411538 5.03399,1.530761 7.69013,3.784484 9.97722,8.465799 4.51232,9.235699 4.23155,20.035318 -0.81185,31.229108 -5.73538,12.729821 -20.68385,20.284713 -33.71538,17.03972 z m 11.58024,-0.403511 c 5.3207,-0.98138 12.22987,-4.672418 16.02981,-8.563422 8.86421,-9.076643 12.1113,-26.446873 7.06811,-37.810717 -2.90119,-6.537515 -7.57493,-9.669977 -15.19797,-10.186181 -5.06596,-0.343046 -8.47526,0.29671 -21.21146,3.980372 -5.39592,1.560624 -12.33151,3.421226 -15.41264,4.134671 -8.43587,1.95339 -9.85588,3.630189 -7.78207,9.18924 0.60628,1.625052 2.51501,7.195235 4.24164,12.378188 1.72672,5.182949 4.08576,11.267519 5.24232,13.521272 5.57911,10.871492 15.06782,15.561564 27.02226,13.356577 z m -571.65365,-0.869875 c 0,-0.175807 0.51306,-1.970746 1.14016,-3.988768 0.62708,-2.018022 2.30305,-9.519324 3.72437,-16.669551 4.84462,-24.371773 5.30245,-25.213083 24.98286,-45.908434 16.33195,-17.174209 20.91118,-24.1294355 26.436,-40.15268 1.38542,-4.018042 2.53281,-7.02538 2.54977,-6.682977 0.0586,1.183499 -3.84524,12.3942185 -5.90276,16.9511515 -4.61559,10.222431 -9.83895,17.1228085 -24.94256,32.9506515 -11.61846,12.175577 -13.10544,13.981406 -16.05748,19.500627 -2.48019,4.637019 -3.70322,9.082483 -6.71671,24.413947 -2.1828,11.105144 -4.37105,19.905664 -4.94954,19.905664 -0.14526,0 -0.26411,-0.143844 -0.26411,-0.319631 z m 322.309123,-3.864756 c -2.221828,-0.267015 -7.6754,-1.277743 -12.119056,-2.246061 -10.715141,-2.334926 -18.276755,-3.156562 -29.431985,-3.198051 -7.974436,-0.02969 -10.689439,0.229893 -19.909882,1.903334 -13.5522,2.459607 -19.32229,2.525205 -32.60602,0.370706 -26.15999,-4.242932 -39.737,-8.753862 -45.57167,-15.141078 -2.57425,-2.818035 -2.616,-2.928072 -2.616,-6.894493 0,-5.391102 2.26366,-10.171173 8.88903,-18.770613 6.83621,-8.873096 9.57506,-14.574561 9.99176,-20.799894 0.39436,-5.891397 -0.31247,-9.063194 -3.97445,-17.8345735 -4.55337,-10.906515 -9.94015,-27.8330725 -8.58473,-26.9753045 0.25999,0.164538 0.65378,1.299288 0.87506,2.521668 0.7329,4.048571 4.4274,15.0400355 7.78683,23.1665555 4.16934,10.0857105 4.8776,13.0980015 4.47918,19.0502155 -0.3704,5.533451 -2.8017,11.376821 -7.16657,17.224048 -1.49745,2.006006 -4.00816,5.375749 -5.57935,7.488317 -4.3695,5.875078 -6.13865,10.144251 -6.13921,14.814569 -4.1e-4,3.576432 0.1573,4.07111 2.00123,6.27695 5.21697,6.240928 19.62235,11.067901 45.60889,15.282701 13.28373,2.154509 19.05382,2.088911 32.60602,-0.370706 16.87586,-3.062832 30.77619,-2.649278 50.444181,1.500785 10.975917,2.315986 19.703966,3.117617 23.255797,2.135953 8.229817,-2.274578 14.871905,-13.83747 14.79361,-25.753441 -0.07492,-11.405528 -4.015425,-16.474585 -16.787075,-21.595013 -13.143529,-5.269531 -29.778488,-8.568908 -47.179858,-9.357654 -12.905556,-0.584966 -17.240425,-1.619578 -24.187955,-5.772988 -9.99629,-5.976054 -23.17086,-20.0375055 -31.15187,-33.2489555 -3.39629,-5.6220965 -6.69819,-12.0591305 -6.69819,-13.0580955 0,-0.347565 1.11239,1.581661 2.47195,4.287169 9.23654,18.3804255 24.82792,35.9331 37.92586,42.696695 6.448886,3.330116 9.134803,3.886181 21.640205,4.480174 6.348079,0.301527 14.788137,1.102353 18.75568,1.779612 13.833456,2.361366 28.405621,6.826523 35.888593,10.996874 6.601154,3.6789 9.873505,9.889567 9.901454,18.792182 0.02652,8.437425 -2.538096,15.566611 -7.605864,21.143318 -4.931764,5.427026 -8.900286,6.439731 -20.005595,5.105095 z M -328.06692,79.759414 c -2.00953,-0.888825 -3.14608,-2.702556 -3.76574,-6.009437 -0.73783,-3.937502 -0.29771,-7.042817 1.53445,-10.826336 2.82374,-5.831225 6.84182,-9.501468 17.88798,-16.339499 4.16752,-2.579868 8.88434,-5.893946 10.48179,-7.364623 4.86223,-4.47632 10.50178,-14.563762 20.10393,-35.9597795 2.03292,-4.529898 4.65283,-9.859001 5.82201,-11.842451 2.04811,-3.4744995 7.94937,-10.4019455 8.86108,-10.4019455 0.24369,0 -1.03584,1.529026 -2.8434,3.397837 -4.15406,4.294825 -6.67726,8.7354245 -13.34693,23.4893925 -5.39296,11.9297725 -10.34736,21.6203845 -13.31602,26.0456315 -2.749,4.097814 -8.12142,8.619541 -16.09512,13.546553 -9.32379,5.761236 -14.1357,10.110697 -16.78435,15.171263 -1.7051,3.257817 -1.95289,4.270236 -1.92735,7.874934 0.0346,4.895632 1.13688,7.491425 3.62996,8.548836 3.83035,1.624615 11.58961,-2.126878 16.88485,-8.163564 1.48484,-1.692748 5.09476,-6.295529 8.02205,-10.228409 8.03729,-10.798308 10.54692,-13.12364 18.08924,-16.760915 3.51559,-1.69539 11.71571,-5.017744 18.22248,-7.383009 19.99617,-7.268762 28.34355,-11.430936 33.75868,-16.832758 9.19223,-9.169626 9.18379,-25.0446745 -0.019,-35.751151 l -2.79364,-3.250105 2.73958,2.659177 c 7.52267,7.3018785 9.68267,20.6295385 4.95148,30.551545 -4.03154,8.45473 -13.36331,14.120331 -37.77144,22.93216 -24.18807,8.732386 -26.12775,10.025768 -37.21377,24.81427 -7.26373,9.689662 -12.06604,14.565215 -16.29404,16.54251 -3.50871,1.64092 -7.152,2.277081 -8.81875,1.539873 z m 260.848202,-8.603033 c -5.501136,-1.028451 -10.6125,-3.228837 -12.019452,-5.174243 -1.028344,-1.421903 -1.082332,-1.870169 -0.475183,-3.945214 1.456674,-4.978474 7.539485,-7.916291 16.534317,-7.98559 6.905396,-0.05318 11.253388,1.182323 14.655992,4.164625 3.088317,2.706842 3.983596,5.500011 2.560453,7.988368 -1.481268,2.58996 -3.399062,3.865746 -7.382756,4.911251 -4.063059,1.066329 -8.320889,1.078851 -13.873371,0.04083 z m 13.744225,-0.611953 c 5.965967,-1.591174 8.543185,-4.480896 7.336191,-8.225755 -3.402733,-10.557462 -30.93571,-10.309084 -33.211239,0.2996 -0.597301,2.78469 0.815055,4.316843 5.60554,6.080994 7.325373,2.697658 14.592721,3.359214 20.269508,1.845161 z m -97.463427,-3.773981 c -7.49125,-1.981482 -8.85487,-8.770762 -2.84655,-14.172554 4.77548,-4.293423 10.38242,-5.575288 15.27288,-3.491716 6.43971,2.743625 7.73934,9.15893 2.81016,13.871576 -3.17482,3.035344 -10.86382,4.9493 -15.23649,3.792694 z m 11.85464,-2.292847 c 7.22628,-3.753263 7.82929,-11.135976 1.18268,-14.479713 -3.78426,-1.903764 -7.02025,-1.728305 -11.7081,0.634828 -4.56794,2.302687 -6.79648,4.949442 -7.18776,8.536642 -0.21369,1.959081 -5.8e-4,2.861658 0.97348,4.125753 2.82436,3.664813 10.86662,4.232913 16.7397,1.18249 z M -365.25967,48.250264 c -0.0474,-1.603424 2.60274,-7.298511 5.40419,-11.613473 1.42251,-2.191038 6.36268,-7.751322 11.10544,-12.499427 17.25986,-17.2793565 19.71623,-21.2167095 23.03131,-36.917276 0.81746,-3.8716 1.2347,-5.185904 1.03176,-3.250104 -0.1874,1.787557 -0.80573,5.111528 -1.37407,7.3866025 -2.99582,11.992238 -6.05221,16.684171 -20.17625,30.9729415 -11.4447,11.578183 -15.22139,16.568655 -17.70292,23.392444 -0.70916,1.950063 -1.30292,3.087795 -1.31946,2.528292 z M -33.169949,21.406626 c -7.280204,-1.549533 -18.276963,-6.241727 -23.99514,-10.238463 -1.912954,-1.3370615 -6.256057,-4.6356115 -9.651347,-7.3301115 -3.395301,-2.6945 -10.847751,-8.120921 -16.561019,-12.058715 -5.713267,-3.9377945 -11.296687,-7.9944185 -12.407601,-9.0147215 l -2.019851,-1.855095 2.596943,1.883324 c 1.428319,1.035827 6.768264,4.753034 11.866544,8.2604585 5.09828,3.507424 13.018946,9.28846498 17.601486,12.846757 10.346886,8.0342565 12.111455,9.1728075 19.213533,12.3971635 16.562711,7.519501 30.092647,6.310996 42.17061,-3.766713 6.64465,-5.5442175 13.060206,-16.0201215 16.273244,-26.572413 0.835116,-2.742701 1.621795,-4.880851 1.74817,-4.751445 0.546094,0.559185 -3.044949,10.6231025 -5.654233,15.8459895 C 1.850493,9.3846745 -7.82238,17.964495 -18.8258,20.8572 c -3.240987,0.852026 -11.445874,1.166299 -14.344149,0.549426 z M -365.03206,17.1131 c 0.18938,-0.31375 2.96602,-2.329386 6.17033,-4.479192 12.30869,-8.2580385 16.77522,-14.6964425 18.65525,-26.89114 0.42589,-2.762589 0.795,-4.092178 0.82023,-2.95464 0.0756,3.408075 -1.54614,10.1080805 -3.36453,13.9002125 -3.35674,7.000221 -7.11162,10.778363 -17.53267,17.6412265 -2.80109,1.844693 -4.93798,3.097283 -4.74861,2.783533 z M -36.86111,9.3521235 c -7.387229,-1.98091 -15.213309,-6.880513 -23.044685,-14.427367 -2.117682,-2.040744 -6.803309,-6.0052115 -10.412502,-8.8099285 -3.609184,-2.804717 -6.351483,-5.099485 -6.093984,-5.099485 0.865143,0 13.182196,9.8895155 18.515866,14.8666215 15.634614,14.5894275 31.611484,17.9778145 43.268203,9.176354 5.389953,-4.06970802 10.530494,-11.816625 13.512586,-20.3638245 0.711443,-2.039098 1.38698,-3.611755 1.501211,-3.494795 0.435199,0.445629 -2.17752,7.203856 -4.540834,11.7456115 -7.457132,14.330947 -18.948938,20.0957825 -32.705861,16.406813 z m 218.93255,-0.546596 c -12.34181,-1.799215 -22.86446,-7.06042 -30.21619,-15.107743 -1.94036,-2.123968 -3.52794,-4.0523155 -3.52794,-4.2852155 0,-0.232901 -0.51451,-2.265753 -1.14337,-4.517447 -0.62885,-2.251694 -0.92329,-3.846354 -0.6543,-3.543688 0.269,0.302666 0.94857,2.332607 1.51016,4.510981 1.29494,5.0229735 4.7513,9.1640805 11.42985,13.69419348 9.41844,6.38865302 17.75515,8.83909302 30.12021,8.85336402 19.63765,0.02267 28.84053,-6.438703 33.14373,-23.2703155 0.62153,-2.430878 1.14429,-3.849474 1.16171,-3.152435 0.0475,1.887161 -2.18654,8.9175095 -4.00976,12.6194695 -1.82331,3.701994 -6.70331,8.712978 -10.33064,10.607855 -5.97282,3.120116 -19.01978,4.8248345 -27.48346,3.590981 z M 111.75781,8.1385225 C 106.58115,7.3645195 97.664,5.0306795 87.23696,1.7207995 82.04491,0.07267348 74.51378,-1.9478735 70.50113,-2.7693055 c -4.01266,-0.821432 -8.64683,-2.160143 -10.29816,-2.974912 -3.53445,-1.74391 -7.766459,-6.3256185 -9.749028,-10.5546145 -0.768697,-1.639709 -1.070722,-2.478885 -0.671162,-1.864835 0.39955,0.614049 1.71349,2.662167 2.91986,4.551374 2.16866,3.396183 6.26353,7.0179515 9.24863,8.1800825 0.84693,0.329721 4.72176,1.260048 8.61072,2.067392 3.88896,0.807344 12.1499,3.04891398 18.35764,4.981265 13.25676,4.126583 20.57097,5.834028 27.23982,6.358922 5.87829,0.462669 8.7293,-0.315631 9.94033,-2.713623 1.01707,-2.013932 2.92666,-11.976068 3.68486,-19.2235135 l 0.55638,-5.318353 -0.28646,5.613817 c -0.32782,6.4241735 -2.14177,16.4808125 -3.43442,19.0403945 -1.61032,3.18866 -6.25142,4.051916 -14.86233,2.764432 z M -35.478336,-3.8581635 c -3.42605,-1.112398 -6.539149,-2.877208 -10.156488,-5.757712 -3.72577,-2.9668485 -10.575169,-9.3687815 -10.023611,-9.3687815 0.204966,0 2.232398,1.746777 4.505403,3.881728 13.82532,12.9856075 23.171346,14.65625948 31.150899,5.5683865 1.457565,-1.6600225 3.34159,-4.4653985 4.186721,-6.2341695 1.712708,-3.584559 2.448666,-4.330857 1.162487,-1.178831 -1.621073,3.972754 -5.614714,9.2700555 -8.306548,11.0180745 -4.484828,2.912357 -8.090923,3.509002 -12.518863,2.071305 z m -329.811394,-4.80806 c 0,-0.141237 0.89362,-0.639125 1.98584,-1.106417 2.27212,-0.9721055 4.32278,-4.4738975 4.42918,-7.5634225 0.0384,-1.114141 0.18435,-1.477398 0.34196,-0.850922 0.81987,3.2588 -1.78537,8.00291 -5.03106,9.1614775 -0.94926,0.338842 -1.72592,0.50052 -1.72592,0.359284 z m 621.31214,-1.5066885 c -2.10459,-1.695048 -3.25501,-4.190758 -3.16327,-6.861883 0.0762,-2.228546 0.0802,-2.225071 0.44883,0.464927 0.46823,3.41308 1.92743,5.721482 4.27866,6.7687485 1.00761,0.44879 1.41259,0.826389 0.89993,0.839112 -0.51267,0.01272 -1.62162,-0.532186 -2.46415,-1.2109045 z m -77.1089,-1.618976 c -4.15919,-1.416453 -6.22736,-2.588891 -8.51217,-4.825662 -2.81668,-2.757368 -2.25562,-2.81006 0.78077,-0.07332 3.7165,3.349831 8.02346,4.916646 14.42887,5.249074 7.62353,0.395639 12.36804,-1.166222 18.0867,-5.954057 1.12796,-0.944384 0.80967,-0.507732 -0.70744,0.970338 -3.89722,3.797005 -7.9233,5.264211 -15.13176,5.514331 -4.45155,0.154462 -6.49666,-0.04689 -8.94497,-0.880703 z"
         style="fill:#bfebec;fill-opacity:0.7976879" />
    </g>
  </g>
</svg>
